<?xml version="1.0" encoding="utf-8"?>
<!-- Generator: Adobe Illustrator 28.1.0, SVG Export Plug-In . SVG Version: 6.00 Build 0)  -->
<svg version="1.1" id="Capa_1" xmlns="http://www.w3.org/2000/svg" xmlns:xlink="http://www.w3.org/1999/xlink" x="0px" y="0px"
	 viewBox="0 0 400 400" style="enable-background:new 0 0 400 400;" xml:space="preserve">
<style type="text/css">
	.st0{fill:#1F2B52;}
	.st1{fill:#FFFFFF;}
</style>
<rect class="st0" width="400" height="400"/>
<g>
	<path class="st1" d="M239.74,227.39c-0.34-0.41-0.4-0.98-0.16-1.45c0.77-1.55,1.44-3.15,2.01-4.8c0.17-0.5,0.61-0.86,1.13-0.91
		l14.61-1.49c2.34-0.24,4.12-2.21,4.12-4.57v-12.61c0-2.36-1.78-4.33-4.12-4.57l-14.61-1.49c-0.53-0.05-0.96-0.41-1.13-0.91
		c-0.57-1.65-1.25-3.25-2.01-4.8c-0.24-0.48-0.18-1.04,0.16-1.45l9.29-11.4c1.49-1.83,1.35-4.48-0.31-6.15l-8.92-8.92
		c-1.66-1.66-4.32-1.8-6.15-0.31l-11.4,9.29c-0.41,0.34-0.98,0.39-1.45,0.16c-1.55-0.77-3.15-1.44-4.8-2.01
		c-0.5-0.17-0.86-0.61-0.91-1.13l-1.49-14.61c-0.24-2.34-2.21-4.13-4.57-4.13h-12.61c-2.36,0-4.33,1.78-4.57,4.12l-1.49,14.61
		c-0.05,0.53-0.41,0.96-0.91,1.13c-1.65,0.57-3.25,1.24-4.8,2.01c-0.48,0.24-1.04,0.18-1.45-0.16l-11.4-9.29
		c-1.83-1.49-4.48-1.35-6.15,0.31l-8.92,8.92c-1.66,1.67-1.8,4.32-0.31,6.15l9.29,11.4c0.34,0.41,0.39,0.98,0.16,1.45
		c-0.77,1.55-1.44,3.15-2.01,4.8c-0.17,0.5-0.61,0.86-1.14,0.91l-14.61,1.49c-2.34,0.24-4.13,2.21-4.13,4.57v12.61
		c0,2.36,1.78,4.33,4.13,4.57l14.61,1.49c0.53,0.05,0.96,0.41,1.14,0.91c0.57,1.65,1.24,3.25,2.01,4.8
		c0.24,0.48,0.18,1.04-0.16,1.45l-9.29,11.4c-1.49,1.83-1.35,4.48,0.31,6.15l8.92,8.92c1.67,1.66,4.32,1.8,6.15,0.31l11.4-9.29
		c0.41-0.34,0.98-0.39,1.45-0.16c1.55,0.77,3.15,1.44,4.8,2.01c0.5,0.17,0.86,0.61,0.91,1.13l1.49,14.61
		c0.24,2.34,2.21,4.12,4.57,4.12h12.61c2.35,0,4.33-1.78,4.57-4.13l1.49-14.61c0.05-0.53,0.41-0.96,0.91-1.13
		c1.65-0.57,3.25-1.24,4.8-2.01c0.48-0.24,1.04-0.18,1.45,0.16l11.4,9.29c1.83,1.49,4.48,1.35,6.15-0.31l8.92-8.92
		c1.67-1.67,1.8-4.32,0.31-6.15L239.74,227.39z M202.72,229.66c-12.04,0-21.8-9.76-21.8-21.8c0-12.04,9.76-21.8,21.8-21.8
		c12.04,0,21.8,9.76,21.8,21.8C224.53,219.9,214.77,229.66,202.72,229.66z"/>
	<path class="st1" d="M116.77,207.86c0-45.96,37.39-83.35,83.35-83.35h22.4v8.68c0,2.26,1.23,4.34,3.22,5.42
		c0.92,0.51,1.95,0.76,2.96,0.76c1.16,0,2.32-0.33,3.34-0.98l26.58-17.05c1.78-1.14,2.84-3.08,2.85-5.19c0-2.12-1.06-4.06-2.84-5.21
		c0,0,0,0-0.01-0.01l-26.58-17.05c-1.9-1.22-4.31-1.31-6.3-0.22c-1.98,1.08-3.22,3.16-3.22,5.42v8.68h-22.4
		c-55.19,0-100.09,44.9-100.09,100.09c0,4.62,3.76,8.37,8.37,8.37C113.01,216.23,116.77,212.48,116.77,207.86z"/>
	<path class="st1" d="M298.15,187.51c-0.82-3.95-4.32-6.67-8.22-6.67c-0.56,0-1.12,0.05-1.69,0.17c-4.52,0.93-7.43,5.37-6.5,9.9
		c0.73,3.54,1.24,7.16,1.5,10.76c0.32,4.35,3.98,7.76,8.34,7.76l0.63-0.03c4.61-0.34,8.07-4.36,7.74-8.96
		C299.64,196.13,299.03,191.78,298.15,187.51z"/>
	<path class="st1" d="M271.07,164.12c2.34,3.8,7.68,5.1,11.52,2.73c1.9-1.17,3.24-3.02,3.75-5.2c0.52-2.18,0.15-4.43-1.02-6.33
		c-2.28-3.7-4.82-7.27-7.56-10.63c-1.41-1.73-3.41-2.82-5.64-3.05c-0.29-0.03-0.58-0.05-0.87-0.05c-1.92,0-3.76,0.65-5.27,1.88
		c-1.73,1.41-2.82,3.42-3.05,5.64c-0.23,2.23,0.42,4.4,1.83,6.14C267.05,158.06,269.16,161.03,271.07,164.12z"/>
	<path class="st1" d="M290.68,224.57c-0.74-0.2-1.49-0.3-2.23-0.3c-3.67,0-7.05,2.43-8.08,6.13c-0.96,3.45-2.17,6.89-3.59,10.23
		c-1.81,4.25,0.17,9.18,4.42,10.99c4.18,1.78,9.23-0.28,10.99-4.42c1.71-4.01,3.17-8.15,4.32-12.32c0.6-2.15,0.32-4.41-0.78-6.36
		C294.63,226.57,292.83,225.17,290.68,224.57z"/>
	<path class="st1" d="M267.14,262.11c-0.1,0-0.2,0-0.3,0c-2.23,0.08-4.3,1.02-5.82,2.65c-2.46,2.64-5.13,5.14-7.92,7.43
		c-3.56,2.93-4.08,8.22-1.14,11.79c2.82,3.42,8.35,3.97,11.79,1.14c3.35-2.76,6.55-5.76,9.51-8.93c3.15-3.37,2.97-8.68-0.4-11.83
		C271.29,262.91,269.27,262.11,267.14,262.11z"/>
	<path class="st1" d="M188.72,290.42c-3.62-0.5-7.2-1.23-10.65-2.18c-0.74-0.2-1.48-0.3-2.22-0.3c-1.44,0-2.86,0.37-4.14,1.11
		c-1.94,1.11-3.33,2.91-3.92,5.07c-1.22,4.46,1.42,9.07,5.88,10.29c4.15,1.13,8.45,2.01,12.77,2.61c4.6,0.64,8.82-2.65,9.44-7.15
		c0.31-2.22-0.27-4.42-1.62-6.2C192.91,291.88,190.94,290.73,188.72,290.42z"/>
	<path class="st1" d="M143.58,269.11c-1.56-1.44-3.57-2.23-5.68-2.23c-0.11,0-0.22,0-0.34,0.01c-2.24,0.09-4.3,1.04-5.81,2.68
		c-1.52,1.64-2.31,3.78-2.22,6.01c0.09,2.24,1.04,4.3,2.68,5.82c3.18,2.94,6.59,5.71,10.13,8.22c3.65,2.58,9.1,1.64,11.67-2
		c2.67-3.77,1.77-9-2-11.67C149.06,273.86,146.23,271.56,143.58,269.11z"/>
	<path class="st1" d="M121.72,236.22c-0.76-2.11-2.3-3.79-4.32-4.74c-1.13-0.53-2.33-0.79-3.54-0.79c-0.96,0-1.93,0.17-2.86,0.51
		c-4.34,1.57-6.6,6.39-5.02,10.73c1.47,4.06,3.23,8.08,5.24,11.96c2.06,3.96,7.27,5.66,11.29,3.57c4.09-2.13,5.7-7.19,3.57-11.29
		C124.43,242.99,122.96,239.64,121.72,236.22z"/>
	<path class="st1" d="M234.4,286.75c-1.14-0.54-2.36-0.81-3.59-0.81c-0.95,0-1.89,0.16-2.81,0.49c-3.43,1.22-6.94,2.22-10.44,2.96
		c-2.19,0.47-4.07,1.76-5.28,3.63c-1.22,1.88-1.63,4.12-1.16,6.3c0.94,4.42,5.53,7.41,9.93,6.45c4.25-0.9,8.48-2.1,12.57-3.56
		c2.11-0.75,3.8-2.28,4.76-4.3c0.96-2.02,1.07-4.29,0.33-6.4C237.95,289.4,236.42,287.71,234.4,286.75z"/>
</g>
</svg>
