<?xml version="1.0" encoding="utf-8"?>
<!-- Generator: Adobe Illustrator 28.1.0, SVG Export Plug-In . SVG Version: 6.00 Build 0)  -->
<svg version="1.1" id="Capa_1" xmlns="http://www.w3.org/2000/svg" xmlns:xlink="http://www.w3.org/1999/xlink" x="0px" y="0px"
	 viewBox="0 0 400 400" style="enable-background:new 0 0 400 400;" xml:space="preserve">
<style type="text/css">
	.st0{fill:#202B52;}
</style>
<g>
	<g>
		<g>
			<path class="st0" d="M328.68,201.39c-8.3-5.65-14.4-14.33-17.17-24.44c-2.1-7.65-6.08-14.02-11.64-18.7l18.8-19.19l-4.88-3.4
				c-20.8-14.5-38.36-6.67-45.47-2.18c-7.91-5.19-18.54-5.25-19-5.25c-2.78,0-5.04,2.25-5.04,5.04c0,2.78,2.25,5.04,5.04,5.04
				c0.08,0,8.48,0.1,13.78,3.8c3.07,2.14,7.07,2.2,10.2,0.14c4.47-2.93,15.62-8.35,29.54-1.42l-30.31,30.94
				c-1.95,1.99-1.91,5.18,0.07,7.12c0.98,0.96,2.25,1.44,3.52,1.44c1.31,0,2.61-0.5,3.6-1.51l13.08-13.35
				c4.34,3.41,7.36,8.15,9,14.13c3.18,11.63,9.99,21.74,19.28,28.72v20.22c-5.42,1.39-15.49,4.44-25.87,9.95
				c-20.45,10.85-32.21,26.09-34.02,44.08h-17.71v-9.17c0-6.13-4.99-11.12-11.12-11.12h-34.94c-6.13,0-11.12,4.99-11.12,11.12v6.5
				c0,1.47-1.2,2.67-2.67,2.67h-14.57c-1.09,0-2.06-0.65-2.47-1.65c-3.84-9.36-14.44-33.22-29.78-52.55
				c-12.2-15.37-14.79-36.35-6.58-53.43c8.7-18.11,26.01-30.48,51.46-36.78c2.7-0.67,4.35-3.4,3.68-6.1c-0.67-2.7-3.4-4.34-6.1-3.68
				c-28.5,7.06-48.06,21.26-58.12,42.2c-3.23,6.73-5.07,13.95-5.58,21.27c-3.11-0.38-7.27-1.43-10.33-4.23
				c-2.99-2.74-4.46-6.69-4.5-12.08c-0.07-8.53-6.62-15.62-14.92-16.14c-4.44-0.28-8.68,1.25-11.92,4.29
				c-3.19,3-5.02,7.23-5.02,11.61c0,2.78,2.25,5.04,5.04,5.04c2.78,0,5.04-2.25,5.04-5.04c0-1.63,0.66-3.15,1.85-4.27
				c1.19-1.12,2.75-1.68,4.39-1.58c3.04,0.19,5.45,2.9,5.47,6.17c0.07,8.27,2.71,14.82,7.84,19.49c5.48,4.97,12.51,6.47,17.21,6.87
				c1.14,11.65,5.6,23.07,13.21,32.66c14.54,18.31,24.67,41.14,28.35,50.11c1.97,4.8,6.6,7.9,11.79,7.9h14.57
				c7.03,0,12.75-5.72,12.75-12.75v-6.5c0-0.58,0.47-1.05,1.04-1.05h34.94c0.58,0,1.05,0.47,1.05,1.05v9.43
				c0,5.41,4.4,9.81,9.81,9.81h18.21c5.09,0,9.28-3.81,9.76-8.85c3.38-35.69,55.36-46.21,55.88-46.31l4.08-0.79v-33.64
				L328.68,201.39z"/>
			<path class="st0" d="M282.63,204.91c4.32,0,7.82-3.5,7.82-7.82s-3.5-7.82-7.82-7.82s-7.82,3.5-7.82,7.82
				S278.31,204.91,282.63,204.91z"/>
			<path class="st0" d="M194.98,163.16c5.93,3.86,12.82,5.91,19.91,5.91c7.09,0,13.98-2.04,19.92-5.9c2.33-1.52,2.99-4.64,1.48-6.97
				c-1.52-2.33-4.64-2.99-6.97-1.48c-4.3,2.8-9.29,4.28-14.43,4.28c-5.14,0-10.12-1.48-14.42-4.27c-2.33-1.52-5.45-0.86-6.97,1.47
				C191.99,158.53,192.65,161.65,194.98,163.16z"/>
			<path class="st0" d="M214.89,147.15c10.97,0,19.9-8.93,19.9-19.9s-8.93-19.9-19.9-19.9c-10.97,0-19.9,8.93-19.9,19.9
				S203.92,147.15,214.89,147.15z M214.89,117.42c5.42,0,9.83,4.41,9.83,9.83s-4.41,9.83-9.83,9.83s-9.83-4.41-9.83-9.83
				S209.47,117.42,214.89,117.42z"/>
		</g>
	</g>
</g>
</svg>
