<?xml version="1.0" encoding="utf-8"?>
<!-- Generator: Adobe Illustrator 28.1.0, SVG Export Plug-In . SVG Version: 6.00 Build 0)  -->
<svg version="1.1" id="Capa_1" xmlns="http://www.w3.org/2000/svg" xmlns:xlink="http://www.w3.org/1999/xlink" x="0px" y="0px"
	 viewBox="0 0 400 400" style="enable-background:new 0 0 400 400;" xml:space="preserve">
<style type="text/css">
	.st0{fill:#1F2B52;}
	.st1{fill:#FFFFFF;}
</style>
<rect class="st0" width="400" height="400"/>
<g>
	<g>
		<g>
			<path class="st1" d="M328.04,201.38c-8.26-5.62-14.33-14.26-17.09-24.32c-2.09-7.61-6.05-13.95-11.59-18.6l18.7-19.09l-4.86-3.39
				c-20.7-14.43-38.18-6.64-45.25-2.17c-7.87-5.16-18.45-5.22-18.91-5.22c-2.77,0-5.01,2.24-5.01,5.01s2.24,5.01,5.01,5.01
				c0.08,0,8.44,0.1,13.71,3.78c3.05,2.13,7.03,2.18,10.15,0.14c4.44-2.92,15.54-8.3,29.4-1.42l-30.16,30.79
				c-1.94,1.98-1.9,5.15,0.07,7.09c0.98,0.96,2.24,1.43,3.51,1.43c1.3,0,2.6-0.5,3.58-1.5l13.01-13.28
				c4.31,3.39,7.33,8.11,8.96,14.07c3.17,11.57,9.94,21.63,19.19,28.58v20.12c-5.39,1.39-15.41,4.42-25.75,9.91
				c-20.35,10.8-32.05,25.96-33.85,43.86h-17.62v-9.12c0-6.1-4.96-11.06-11.06-11.06h-34.76c-6.1,0-11.06,4.96-11.06,11.06v6.46
				c0,1.47-1.19,2.66-2.66,2.66h-14.5c-1.08,0-2.05-0.65-2.46-1.65c-3.83-9.32-14.37-33.06-29.63-52.29
				c-12.14-15.3-14.72-36.17-6.55-53.17c8.66-18.02,25.88-30.33,51.21-36.6c2.69-0.67,4.33-3.38,3.66-6.07
				c-0.67-2.69-3.38-4.32-6.07-3.66c-28.36,7.02-47.82,21.15-57.83,41.99c-3.22,6.69-5.04,13.88-5.55,21.16
				c-3.1-0.38-7.23-1.42-10.28-4.21c-2.97-2.72-4.44-6.66-4.48-12.02c-0.07-8.49-6.59-15.55-14.85-16.06
				c-4.42-0.28-8.64,1.24-11.86,4.27c-3.18,2.98-5,7.2-5,11.55c0,2.77,2.24,5.01,5.01,5.01s5.01-2.24,5.01-5.01
				c0-1.63,0.65-3.13,1.84-4.25c1.18-1.11,2.74-1.67,4.37-1.57c3.03,0.19,5.42,2.88,5.45,6.14c0.07,8.22,2.69,14.75,7.81,19.4
				c5.45,4.95,12.45,6.43,17.12,6.84c1.13,11.59,5.57,22.96,13.14,32.5c14.47,18.22,24.55,40.94,28.21,49.87
				c1.96,4.78,6.57,7.86,11.73,7.86h14.5c6.99,0,12.69-5.69,12.69-12.68v-6.46c0-0.57,0.47-1.04,1.04-1.04h34.76
				c0.57,0,1.04,0.47,1.04,1.04v9.38c0,5.38,4.38,9.76,9.76,9.76h18.12c5.06,0,9.24-3.79,9.71-8.81
				c3.37-35.52,55.09-45.98,55.61-46.08l4.06-0.78v-33.47L328.04,201.38z"/>
			<path class="st1" d="M282.23,204.89c4.3,0,7.78-3.48,7.78-7.78c0-4.3-3.48-7.78-7.78-7.78c-4.3,0-7.78,3.48-7.78,7.78
				C274.45,201.4,277.93,204.89,282.23,204.89z"/>
			<path class="st1" d="M195,163.35c5.9,3.85,12.76,5.88,19.82,5.88c7.06,0,13.91-2.03,19.82-5.88c2.32-1.51,2.98-4.61,1.47-6.93
				c-1.51-2.32-4.62-2.98-6.93-1.47c-4.28,2.78-9.25,4.26-14.36,4.26c-5.11,0-10.07-1.47-14.35-4.25c-2.32-1.51-5.42-0.85-6.94,1.47
				C192.03,158.73,192.68,161.83,195,163.35z"/>
			<path class="st1" d="M214.82,147.41c10.92,0,19.8-8.88,19.8-19.8s-8.88-19.8-19.8-19.8c-10.92,0-19.8,8.88-19.8,19.8
				S203.9,147.41,214.82,147.41z M214.82,117.83c5.39,0,9.78,4.39,9.78,9.78c0,5.39-4.39,9.78-9.78,9.78
				c-5.39,0-9.78-4.39-9.78-9.78C205.04,122.21,209.43,117.83,214.82,117.83z"/>
		</g>
	</g>
</g>
</svg>
