<?xml version="1.0" encoding="utf-8"?>
<!-- Generator: Adobe Illustrator 28.1.0, SVG Export Plug-In . SVG Version: 6.00 Build 0)  -->
<svg version="1.1" id="Capa_1" xmlns="http://www.w3.org/2000/svg" xmlns:xlink="http://www.w3.org/1999/xlink" x="0px" y="0px"
	 viewBox="0 0 400 400" style="enable-background:new 0 0 400 400;" xml:space="preserve">
<style type="text/css">
	.st0{fill:#1E2148;}
	.st1{opacity:0.45;fill:url(#SVGID_1_);}
	.st2{fill:#1A1D30;}
</style>
<path class="st0" d="M203.32,329.58c-16.9,0-33.3-3.31-48.74-9.85c-14.91-6.31-28.3-15.33-39.8-26.83
	c-11.49-11.49-20.52-24.88-26.83-39.8c-6.53-15.45-9.85-31.85-9.85-48.74c0-16.9,3.31-33.3,9.85-48.74
	c6.31-14.91,15.33-28.3,26.83-39.8c11.49-11.49,24.88-20.52,39.8-26.83c15.45-6.53,31.85-9.85,48.74-9.85s33.3,3.31,48.74,9.85
	c14.91,6.31,28.3,15.33,39.79,26.83c11.49,11.49,20.52,24.88,26.83,39.8c6.53,15.45,9.85,31.85,9.85,48.74
	c0,16.9-3.31,33.3-9.85,48.74c-6.31,14.91-15.33,28.3-26.83,39.8c-11.49,11.49-24.88,20.52-39.8,26.83
	C236.62,326.26,220.22,329.58,203.32,329.58z"/>
<radialGradient id="SVGID_1_" cx="228.4527" cy="269.4201" r="130.5799" gradientUnits="userSpaceOnUse">
	<stop  offset="0" style="stop-color:#13110C"/>
	<stop  offset="0.06" style="stop-color:#262321"/>
	<stop  offset="0.1962" style="stop-color:#534E4B"/>
	<stop  offset="0.334" style="stop-color:#7F7A78"/>
	<stop  offset="0.471" style="stop-color:#A9A4A3"/>
	<stop  offset="0.6066" style="stop-color:#CCC9C9"/>
	<stop  offset="0.7407" style="stop-color:#E8E6E7"/>
	<stop  offset="0.8727" style="stop-color:#FAF9F9"/>
	<stop  offset="1" style="stop-color:#FFFFFF"/>
</radialGradient>
<circle class="st1" cx="228.45" cy="269.42" r="130.58"/>
<circle class="st2" cx="203.32" cy="204.36" r="105.45"/>
<path class="st2" d="M126.42,281.27c-10.38-10.38-18.42-22.49-23.89-35.98c-5.28-13.03-7.96-26.8-7.96-40.92
	c0-14.12,2.68-27.89,7.96-40.92c5.47-13.49,13.51-25.6,23.89-35.98c10.38-10.38,22.49-18.42,35.98-23.89
	c13.03-5.28,26.8-7.96,40.92-7.96c14.12,0,27.89,2.68,40.92,7.96c13.49,5.47,25.6,13.51,35.98,23.89
	c10.38,10.38,18.42,22.49,23.89,35.98c5.28,13.03,7.96,26.8,7.96,40.92c0,14.12-2.68,27.89-7.96,40.92
	c-5.47,13.49-13.51,25.6-23.89,35.98c-10.38,10.38-22.49,18.42-35.98,23.89c-13.03,5.28-26.8,7.96-40.92,7.96
	c-14.12,0-27.89-2.68-40.92-7.96C148.91,299.69,136.8,291.65,126.42,281.27z M277.92,129.76c-41.13-41.13-108.07-41.13-149.2,0
	c-41.13,41.13-41.13,108.07,0,149.2c41.13,41.13,108.07,41.13,149.2,0C319.06,237.83,319.06,170.9,277.92,129.76z"/>
</svg>
