<?xml version="1.0" encoding="utf-8"?>
<!-- Generator: Adobe Illustrator 28.1.0, SVG Export Plug-In . SVG Version: 6.00 Build 0)  -->
<svg version="1.1" id="Capa_1" xmlns="http://www.w3.org/2000/svg" xmlns:xlink="http://www.w3.org/1999/xlink" x="0px" y="0px"
	 viewBox="0 0 400 400" style="enable-background:new 0 0 400 400;" xml:space="preserve">
<style type="text/css">
	.st0{fill:url(#SVGID_1_);}
	.st1{opacity:0.45;fill:url(#SVGID_00000054968580251655012590000013790715159256589185_);}
	.st2{fill:url(#SVGID_00000060029441857978411880000010903570618377409672_);}
	.st3{opacity:0.4;fill:url(#SVGID_00000016063043678001250210000008067783706769974919_);}
</style>
<linearGradient id="SVGID_1_" gradientUnits="userSpaceOnUse" x1="117.0863" y1="89.9569" x2="302.4639" y2="275.3344">
	<stop  offset="0" style="stop-color:#0F3C5F"/>
	<stop  offset="0.1827" style="stop-color:#0F4973"/>
	<stop  offset="0.4077" style="stop-color:#095686"/>
	<stop  offset="0.63" style="stop-color:#045E93"/>
	<stop  offset="0.8446" style="stop-color:#016197"/>
</linearGradient>
<path class="st0" d="M210.83,317.38c-18.04,0-35.55-3.54-52.04-10.51c-15.92-6.73-30.22-16.37-42.49-28.64
	c-12.27-12.27-21.91-26.57-28.64-42.49c-6.98-16.49-10.51-34-10.51-52.04c0-18.04,3.54-35.55,10.51-52.04
	c6.73-15.92,16.37-30.22,28.64-42.49c12.27-12.27,26.57-21.91,42.49-28.64c16.49-6.98,34-10.51,52.04-10.51
	c18.04,0,35.55,3.54,52.04,10.51c15.92,6.73,30.22,16.37,42.49,28.64c12.27,12.27,21.91,26.57,28.64,42.49
	c6.98,16.49,10.51,34,10.51,52.04c0,18.04-3.54,35.55-10.51,52.04c-6.73,15.92-16.37,30.22-28.64,42.49
	c-12.27,12.27-26.57,21.91-42.49,28.64C246.38,313.84,228.87,317.38,210.83,317.38z"/>
<radialGradient id="SVGID_00000137121492506746031810000004592987386489570449_" cx="237.6593" cy="253.1559" r="139.4096" gradientUnits="userSpaceOnUse">
	<stop  offset="0" style="stop-color:#13110C"/>
	<stop  offset="0.06" style="stop-color:#262321"/>
	<stop  offset="0.1962" style="stop-color:#534E4B"/>
	<stop  offset="0.334" style="stop-color:#7F7A78"/>
	<stop  offset="0.471" style="stop-color:#A9A4A3"/>
	<stop  offset="0.6066" style="stop-color:#CCC9C9"/>
	<stop  offset="0.7407" style="stop-color:#E8E6E7"/>
	<stop  offset="0.8727" style="stop-color:#FAF9F9"/>
	<stop  offset="1" style="stop-color:#FFFFFF"/>
</radialGradient>
<circle style="opacity:0.45;fill:url(#SVGID_00000137121492506746031810000004592987386489570449_);" cx="237.66" cy="253.16" r="139.41"/>
<linearGradient id="SVGID_00000181792014476133252150000016068127907275624093_" gradientUnits="userSpaceOnUse" x1="131.8822" y1="104.7527" x2="288.0013" y2="260.8718">
	<stop  offset="0" style="stop-color:#0F3C5F"/>
	<stop  offset="0.4284" style="stop-color:#0F4570"/>
	<stop  offset="0.8446" style="stop-color:#0E4D7D"/>
</linearGradient>
<circle style="fill:url(#SVGID_00000181792014476133252150000016068127907275624093_);" cx="210.83" cy="183.7" r="112.58"/>
<linearGradient id="SVGID_00000072268244106044693940000005824170267811753105_" gradientUnits="userSpaceOnUse" x1="467.4974" y1="-61.0901" x2="699.7186" y2="-61.0901" gradientTransform="matrix(0.7071 0.7071 -0.7071 0.7071 -245.035 -185.7709)">
	<stop  offset="0.1554" style="stop-color:#0E4D7D"/>
	<stop  offset="0.5716" style="stop-color:#0F4570"/>
	<stop  offset="1" style="stop-color:#0F3C5F"/>
</linearGradient>
<path style="opacity:0.4;fill:url(#SVGID_00000072268244106044693940000005824170267811753105_);" d="M128.73,265.8
	c-11.08-11.08-19.66-24.01-25.51-38.41c-5.64-13.91-8.5-28.61-8.5-43.69c0-15.08,2.86-29.78,8.5-43.69
	c5.84-14.4,14.42-27.33,25.51-38.41c11.08-11.08,24.01-19.66,38.41-25.51c13.91-5.64,28.61-8.5,43.69-8.5
	c15.08,0,29.78,2.86,43.69,8.5c14.4,5.84,27.33,14.42,38.41,25.51c11.08,11.08,19.66,24.01,25.51,38.41
	c5.64,13.91,8.5,28.61,8.5,43.69c0,15.08-2.86,29.78-8.5,43.69c-5.84,14.4-14.42,27.33-25.51,38.41
	c-11.08,11.08-24.01,19.66-38.41,25.51c-13.91,5.64-28.61,8.5-43.69,8.5c-15.08,0-29.78-2.86-43.69-8.5
	C152.74,285.47,139.81,276.89,128.73,265.8z M290.48,104.06c-43.92-43.92-115.37-43.92-159.29,0c-43.92,43.92-43.92,115.37,0,159.29
	s115.37,43.92,159.29,0C334.39,219.43,334.39,147.97,290.48,104.06z"/>
</svg>
