<?xml version="1.0" encoding="utf-8"?>
<!-- Generator: Adobe Illustrator 28.1.0, SVG Export Plug-In . SVG Version: 6.00 Build 0)  -->
<svg version="1.1" id="Capa_1" xmlns="http://www.w3.org/2000/svg" xmlns:xlink="http://www.w3.org/1999/xlink" x="0px" y="0px"
	 viewBox="0 0 400 400" style="enable-background:new 0 0 400 400;" xml:space="preserve">
<style type="text/css">
	.st0{fill:#55B67F;}
	.st1{opacity:0.45;fill:url(#SVGID_1_);}
	.st2{fill:#4FAF7E;}
</style>
<path class="st0" d="M211.26,313.94c-17.93,0-35.34-3.52-51.73-10.45c-15.83-6.69-30.04-16.27-42.24-28.47
	c-12.2-12.2-21.78-26.41-28.47-42.24c-6.94-16.4-10.45-33.8-10.45-51.73c0-17.93,3.52-35.34,10.45-51.73
	c6.69-15.83,16.27-30.04,28.47-42.24c12.2-12.2,26.41-21.78,42.24-28.47c16.4-6.94,33.8-10.45,51.73-10.45s35.34,3.52,51.73,10.45
	c15.83,6.69,30.04,16.27,42.24,28.47c12.2,12.2,21.78,26.41,28.47,42.24c6.94,16.4,10.45,33.8,10.45,51.73
	c0,17.93-3.52,35.34-10.45,51.73c-6.69,15.83-16.27,30.04-28.47,42.24c-12.2,12.2-26.41,21.78-42.24,28.47
	C246.59,310.43,229.19,313.94,211.26,313.94z"/>
<radialGradient id="SVGID_1_" cx="254.8481" cy="239.6914" r="138.5904" gradientUnits="userSpaceOnUse">
	<stop  offset="0" style="stop-color:#13110C"/>
	<stop  offset="0.06" style="stop-color:#262321"/>
	<stop  offset="0.1962" style="stop-color:#534E4B"/>
	<stop  offset="0.334" style="stop-color:#7F7A78"/>
	<stop  offset="0.471" style="stop-color:#A9A4A3"/>
	<stop  offset="0.6066" style="stop-color:#CCC9C9"/>
	<stop  offset="0.7407" style="stop-color:#E8E6E7"/>
	<stop  offset="0.8727" style="stop-color:#FAF9F9"/>
	<stop  offset="1" style="stop-color:#FFFFFF"/>
</radialGradient>
<circle class="st1" cx="254.85" cy="239.69" r="138.59"/>
<ellipse transform="matrix(0.7071 -0.7071 0.7071 0.7071 -66.1454 202.4088)" class="st2" cx="211.26" cy="181.05" rx="111.92" ry="111.92"/>
<path class="st2" d="M129.64,262.67c-11.02-11.02-19.55-23.87-25.36-38.18c-5.61-13.83-8.45-28.44-8.45-43.43
	c0-14.99,2.84-29.6,8.45-43.43c5.81-14.32,14.34-27.17,25.36-38.18c11.02-11.02,23.87-19.55,38.18-25.36
	c13.83-5.61,28.44-8.45,43.43-8.45c14.99,0,29.6,2.84,43.43,8.45c14.32,5.81,27.17,14.34,38.18,25.36
	c11.02,11.02,19.55,23.87,25.36,38.18c5.61,13.83,8.45,28.44,8.45,43.43c0,14.99-2.84,29.6-8.45,43.43
	c-5.81,14.32-14.34,27.17-25.36,38.18c-11.02,11.02-23.87,19.55-38.18,25.36c-13.83,5.61-28.44,8.45-43.43,8.45
	c-14.99,0-29.6-2.84-43.43-8.45C153.5,282.22,140.65,273.69,129.64,262.67z M290.43,101.87c-43.66-43.66-114.69-43.66-158.35,0
	c-43.66,43.66-43.66,114.69,0,158.35c43.66,43.66,114.69,43.66,158.35,0C334.09,216.57,334.09,145.53,290.43,101.87z"/>
</svg>
