<?xml version="1.0" encoding="utf-8"?>
<!-- Generator: Adobe Illustrator 28.1.0, SVG Export Plug-In . SVG Version: 6.00 Build 0)  -->
<svg version="1.1" id="Capa_1" xmlns="http://www.w3.org/2000/svg" xmlns:xlink="http://www.w3.org/1999/xlink" x="0px" y="0px"
	 viewBox="0 0 400 400" style="enable-background:new 0 0 400 400;" xml:space="preserve">
<style type="text/css">
	.st0{fill:url(#SVGID_1_);}
	.st1{opacity:0.45;fill:url(#SVGID_00000051343772755236233140000008225883782078060720_);}
	.st2{fill:url(#SVGID_00000123426994430080661950000011769016011814437767_);}
	.st3{opacity:0.4;fill:url(#SVGID_00000013884125170058368210000011418584032614302906_);}
</style>
<linearGradient id="SVGID_1_" gradientUnits="userSpaceOnUse" x1="118.0625" y1="87.8552" x2="302.3507" y2="272.1434">
	<stop  offset="0" style="stop-color:#5BB1BB"/>
	<stop  offset="0.1863" style="stop-color:#66BAC6"/>
	<stop  offset="0.521" style="stop-color:#74C5D3"/>
	<stop  offset="0.8446" style="stop-color:#79C9D7"/>
</linearGradient>
<path class="st0" d="M211.26,313.94c-17.93,0-35.34-3.52-51.73-10.45c-15.83-6.69-30.04-16.27-42.24-28.47
	c-12.2-12.2-21.78-26.41-28.47-42.24c-6.94-16.4-10.45-33.8-10.45-51.73c0-17.93,3.52-35.34,10.45-51.73
	c6.69-15.83,16.27-30.04,28.47-42.24c12.2-12.2,26.41-21.78,42.24-28.47c16.4-6.94,33.8-10.45,51.73-10.45s35.34,3.52,51.73,10.45
	c15.83,6.69,30.04,16.27,42.24,28.47c12.2,12.2,21.78,26.41,28.47,42.24c6.94,16.4,10.45,33.8,10.45,51.73
	c0,17.93-3.52,35.34-10.45,51.73c-6.69,15.83-16.27,30.04-28.47,42.24c-12.2,12.2-26.41,21.78-42.24,28.47
	C246.59,310.43,229.19,313.94,211.26,313.94z"/>
<radialGradient id="SVGID_00000087371770624719005890000013089294986954566790_" cx="237.9271" cy="250.0952" r="138.5904" gradientUnits="userSpaceOnUse">
	<stop  offset="0" style="stop-color:#13110C"/>
	<stop  offset="0.06" style="stop-color:#262321"/>
	<stop  offset="0.1962" style="stop-color:#534E4B"/>
	<stop  offset="0.334" style="stop-color:#7F7A78"/>
	<stop  offset="0.471" style="stop-color:#A9A4A3"/>
	<stop  offset="0.6066" style="stop-color:#CCC9C9"/>
	<stop  offset="0.7407" style="stop-color:#E8E6E7"/>
	<stop  offset="0.8727" style="stop-color:#FAF9F9"/>
	<stop  offset="1" style="stop-color:#FFFFFF"/>
</radialGradient>
<circle style="opacity:0.45;fill:url(#SVGID_00000087371770624719005890000013089294986954566790_);" cx="237.93" cy="250.1" r="138.59"/>
<linearGradient id="SVGID_00000037693153703076695730000011843629029420070061_" gradientUnits="userSpaceOnUse" x1="132.7715" y1="102.564" x2="287.9732" y2="257.7657">
	<stop  offset="0" style="stop-color:#5BB1BB"/>
	<stop  offset="0.2365" style="stop-color:#64B8C4"/>
	<stop  offset="0.8446" style="stop-color:#79C9D7"/>
</linearGradient>
<circle style="fill:url(#SVGID_00000037693153703076695730000011843629029420070061_);" cx="211.26" cy="181.05" r="111.92"/>
<linearGradient id="SVGID_00000006690168814205429610000015130901942645727126_" gradientUnits="userSpaceOnUse" x1="466.6048" y1="-63.2666" x2="697.4613" y2="-63.2666" gradientTransform="matrix(0.7071 0.7071 -0.7071 0.7071 -245.035 -185.7709)">
	<stop  offset="0.1554" style="stop-color:#79C9D7"/>
	<stop  offset="0.7635" style="stop-color:#64B8C4"/>
	<stop  offset="1" style="stop-color:#5BB1BB"/>
</linearGradient>
<path style="opacity:0.4;fill:url(#SVGID_00000006690168814205429610000015130901942645727126_);" d="M129.64,262.67
	c-11.02-11.02-19.55-23.87-25.36-38.18c-5.61-13.83-8.45-28.44-8.45-43.43c0-14.99,2.84-29.6,8.45-43.43
	c5.81-14.32,14.34-27.17,25.36-38.18c11.02-11.02,23.87-19.55,38.18-25.36c13.83-5.61,28.44-8.45,43.43-8.45
	c14.99,0,29.6,2.84,43.43,8.45c14.32,5.81,27.17,14.34,38.18,25.36c11.02,11.02,19.55,23.87,25.36,38.18
	c5.61,13.83,8.45,28.44,8.45,43.43c0,14.99-2.84,29.6-8.45,43.43c-5.81,14.32-14.34,27.17-25.36,38.18
	c-11.02,11.02-23.87,19.55-38.18,25.36c-13.83,5.61-28.44,8.45-43.43,8.45c-14.99,0-29.6-2.84-43.43-8.45
	C153.5,282.22,140.65,273.69,129.64,262.67z M290.43,101.87c-43.66-43.66-114.69-43.66-158.35,0c-43.66,43.66-43.66,114.69,0,158.35
	c43.66,43.66,114.69,43.66,158.35,0C334.09,216.57,334.09,145.53,290.43,101.87z"/>
</svg>
