<?xml version="1.0" encoding="utf-8"?>
<!-- Generator: Adobe Illustrator 28.1.0, SVG Export Plug-In . SVG Version: 6.00 Build 0)  -->
<svg version="1.1" id="Capa_1" xmlns="http://www.w3.org/2000/svg" xmlns:xlink="http://www.w3.org/1999/xlink" x="0px" y="0px"
	 viewBox="0 0 400 400" style="enable-background:new 0 0 400 400;" xml:space="preserve">
<style type="text/css">
	.st0{fill:#202B52;}
</style>
<g>
	<g>
		<g>
			<path class="st0" d="M155.63,199.49c25.46,0,46.17,20.71,46.17,46.17s-20.71,46.17-46.17,46.17s-46.17-20.71-46.17-46.17
				S130.17,199.49,155.63,199.49z M155.63,281.83c19.94,0,36.17-16.22,36.17-36.17c0-19.94-16.22-36.17-36.17-36.17
				c-19.94,0-36.17,16.22-36.17,36.17C119.46,265.6,135.69,281.83,155.63,281.83z"/>
			<path class="st0" d="M194.69,281.08h80.19c3.12,0,5.65-2.54,5.65-5.65v-151.6c0-3.12-2.54-5.65-5.65-5.65h-93.8v18.16
				c0,12.36-10.06,22.42-22.42,22.42h-18.15v34.41c0,2.76-2.24,5-5,5s-5-2.24-5-5v-41.49l1.46-1.47l0,0L174,108.17h100.88
				c8.63,0,15.66,7.02,15.66,15.66v151.6c0,8.63-7.03,15.66-15.66,15.66h-80.19c-2.76,0-5-2.24-5-5
				C189.69,283.32,191.93,281.08,194.69,281.08z M171.07,136.33v-11.08l-23.49,23.5h11.08
				C165.51,148.74,171.07,143.18,171.07,136.33z"/>
			<path class="st0" d="M199.34,153.22h63.21c2.76,0,5,2.24,5,5s-2.24,5-5,5h-63.21c-2.76,0-5-2.24-5-5
				C194.33,155.46,196.57,153.22,199.34,153.22z"/>
			<path class="st0" d="M199.34,174h63.21c2.76,0,5,2.24,5,5s-2.24,5-5,5h-63.21c-2.76,0-5-2.24-5-5
				C194.33,176.24,196.57,174,199.34,174z"/>
			<path class="st0" d="M194.33,199.77c0-2.76,2.24-5,5-5h63.21c2.76,0,5,2.24,5,5s-2.24,5-5,5h-63.21
				C196.57,204.77,194.33,202.53,194.33,199.77z"/>
			<path class="st0" d="M222.16,215.54h40.39c2.76,0,5,2.24,5,5s-2.24,5-5,5h-40.39c-2.76,0-5-2.24-5-5
				C217.16,217.78,219.4,215.54,222.16,215.54z"/>
			<path class="st0" d="M222.16,236.31h40.39c2.76,0,5,2.24,5,5s-2.24,5-5,5h-40.39c-2.76,0-5-2.24-5-5
				C217.16,238.55,219.4,236.31,222.16,236.31z"/>
			<path class="st0" d="M222.16,257.08h40.39c2.76,0,5,2.24,5,5s-2.24,5-5,5h-40.39c-2.76,0-5-2.24-5-5S219.4,257.08,222.16,257.08z
				"/>
			<path class="st0" d="M144.1,227.06l8.67,8.67c5.07,5.07,7.86,11.81,7.86,18.98v17.76c0,2.76-2.24,5-5,5s-5-2.24-5-5v-17.76
				c0-4.5-1.75-8.73-4.93-11.9l-8.67-8.67c-1.95-1.95-1.95-5.12,0-7.08C138.98,225.1,142.14,225.1,144.1,227.06z"/>
		</g>
	</g>
</g>
</svg>
