<?xml version="1.0" encoding="utf-8"?>
<!-- Generator: Adobe Illustrator 28.1.0, SVG Export Plug-In . SVG Version: 6.00 Build 0)  -->
<svg version="1.1" id="Capa_1" xmlns="http://www.w3.org/2000/svg" xmlns:xlink="http://www.w3.org/1999/xlink" x="0px" y="0px"
	 viewBox="0 0 400 400" style="enable-background:new 0 0 400 400;" xml:space="preserve">
<style type="text/css">
	.st0{fill:#1F2B52;}
	.st1{fill:#FFFFFF;}
</style>
<rect x="0" y="0" transform="matrix(-1 -1.224647e-16 1.224647e-16 -1 399.9998 400)" class="st0" width="400" height="400"/>
<g>
	<g>
		<g>
			<path class="st1" d="M155.55,199.49c25.5,0,46.25,20.75,46.25,46.25S181.06,292,155.55,292c-25.5,0-46.25-20.75-46.25-46.25
				S130.05,199.49,155.55,199.49z M155.55,281.97c19.98,0,36.23-16.25,36.23-36.23c0-19.98-16.25-36.23-36.23-36.23
				c-19.98,0-36.23,16.25-36.23,36.23C119.32,265.72,135.57,281.97,155.55,281.97z"/>
			<path class="st1" d="M194.68,281.22h80.33c3.12,0,5.66-2.54,5.66-5.66V123.69c0-3.12-2.54-5.66-5.66-5.66h-93.97v18.19
				c0,12.38-10.08,22.46-22.46,22.46H140.4v34.47c0,2.77-2.24,5.01-5.01,5.01s-5.01-2.24-5.01-5.01v-41.56l1.47-1.47c0,0,0,0,0,0
				L173.96,108h101.05c8.65,0,15.69,7.04,15.69,15.69v151.86c0,8.65-7.04,15.69-15.69,15.69h-80.33c-2.77,0-5.01-2.24-5.01-5.01
				S191.91,281.22,194.68,281.22z M171.02,136.22v-11.1l-23.53,23.54h11.1C165.44,148.65,171.02,143.08,171.02,136.22z"/>
			<path class="st1" d="M199.33,153.14h63.32c2.77,0,5.01,2.24,5.01,5.01s-2.24,5.01-5.01,5.01h-63.32c-2.77,0-5.01-2.24-5.01-5.01
				S196.57,153.14,199.33,153.14z"/>
			<path class="st1" d="M199.33,173.95h63.32c2.77,0,5.01,2.24,5.01,5.01s-2.24,5.01-5.01,5.01h-63.32c-2.77,0-5.01-2.24-5.01-5.01
				S196.57,173.95,199.33,173.95z"/>
			<path class="st1" d="M194.32,199.77c0-2.77,2.24-5.01,5.01-5.01h63.32c2.77,0,5.01,2.24,5.01,5.01s-2.24,5.01-5.01,5.01h-63.32
				C196.57,204.78,194.32,202.54,194.32,199.77z"/>
			<path class="st1" d="M222.2,215.57h40.46c2.77,0,5.01,2.24,5.01,5.01s-2.24,5.01-5.01,5.01H222.2c-2.77,0-5.01-2.24-5.01-5.01
				S219.43,215.57,222.2,215.57z"/>
			<path class="st1" d="M222.2,236.37h40.46c2.77,0,5.01,2.24,5.01,5.01s-2.24,5.01-5.01,5.01H222.2c-2.77,0-5.01-2.24-5.01-5.01
				S219.43,236.37,222.2,236.37z"/>
			<path class="st1" d="M222.2,257.18h40.46c2.77,0,5.01,2.24,5.01,5.01s-2.24,5.01-5.01,5.01H222.2c-2.77,0-5.01-2.24-5.01-5.01
				S219.43,257.18,222.2,257.18z"/>
			<path class="st1" d="M144,227.1l8.69,8.69c5.08,5.08,7.88,11.83,7.88,19.01v17.79c0,2.77-2.24,5.01-5.01,5.01
				s-5.01-2.24-5.01-5.01v-17.79c0-4.51-1.75-8.74-4.94-11.93l-8.69-8.69c-1.96-1.96-1.96-5.13,0-7.09
				C138.87,225.15,142.04,225.15,144,227.1z"/>
		</g>
	</g>
</g>
</svg>
