<?xml version="1.0" encoding="utf-8"?>
<!-- Generator: Adobe Illustrator 28.1.0, SVG Export Plug-In . SVG Version: 6.00 Build 0)  -->
<svg version="1.1" id="Capa_1" xmlns="http://www.w3.org/2000/svg" xmlns:xlink="http://www.w3.org/1999/xlink" x="0px" y="0px"
	 viewBox="0 0 400 400" style="enable-background:new 0 0 400 400;" xml:space="preserve">
<style type="text/css">
	.st0{fill:#1F2B52;}
	.st1{fill:#FFFFFF;}
</style>
<rect class="st0" width="400" height="400"/>
<g>
	<g>
		<g>
			<path class="st1" d="M200,179.83c1.08,0,2.18,0.09,3.26,0.26c2.73,0.44,5.31-1.42,5.75-4.15c0.44-2.73-1.42-5.31-4.15-5.75
				c-1.61-0.26-3.24-0.39-4.85-0.39c-16.65,0-30.19,13.54-30.19,30.19s13.54,30.19,30.19,30.19c16.65,0,30.19-13.54,30.19-30.19
				c0-1.64-0.14-3.28-0.4-4.88c-0.46-2.73-3.04-4.57-5.77-4.11c-2.73,0.46-4.57,3.04-4.11,5.77c0.18,1.05,0.27,2.13,0.27,3.22
				c0,11.12-9.05,20.17-20.17,20.17c-11.12,0-20.17-9.05-20.17-20.17C179.83,188.88,188.88,179.83,200,179.83z"/>
			<path class="st1" d="M222.4,148.01c0.87-2.63-0.55-5.46-3.18-6.33c-6.17-2.04-12.64-3.08-19.22-3.08
				c-33.86,0-61.41,27.54-61.41,61.4c0,33.86,27.55,61.41,61.41,61.41c33.86,0,61.4-27.55,61.4-61.41c0-6.57-1.03-13.04-3.07-19.21
				c-0.87-2.63-3.7-4.06-6.33-3.19c-2.63,0.87-4.06,3.7-3.19,6.33c1.7,5.16,2.57,10.57,2.57,16.07c0,28.33-23.05,51.38-51.38,51.38
				c-28.33,0-51.38-23.05-51.38-51.38c0-28.33,23.05-51.38,51.38-51.38c5.51,0,10.92,0.87,16.07,2.57
				C218.7,152.06,221.53,150.64,222.4,148.01z"/>
			<path class="st1" d="M284.81,162.75c-1.11-2.53-4.08-3.68-6.61-2.57c-2.53,1.12-3.68,4.07-2.57,6.61
				c4.61,10.48,6.95,21.65,6.95,33.21c0,45.54-37.05,82.59-82.59,82.59c-45.54,0-82.59-37.05-82.59-82.59
				c0-45.54,37.05-82.59,82.59-82.59c11.55,0,22.72,2.34,33.21,6.95c2.53,1.11,5.49-0.03,6.61-2.57c1.12-2.53-0.03-5.49-2.57-6.61
				c-11.76-5.18-24.29-7.8-37.24-7.8c-51.07,0-92.62,41.54-92.62,92.61c0,51.07,41.55,92.62,92.62,92.62
				c51.07,0,92.61-41.55,92.61-92.62C292.61,187.05,289.99,174.51,284.81,162.75z"/>
			<path class="st1" d="M227.46,147.29l1.56,16.6l-32.56,32.56c-1.96,1.96-1.96,5.13,0,7.09c0.98,0.98,2.26,1.47,3.54,1.47
				c1.28,0,2.57-0.49,3.54-1.47l32.56-32.56l16.6,1.56c0.37,0.03,0.74,0.05,1.11,0.05c3.12,0,6.11-1.23,8.34-3.46l21.28-21.28
				c1.56-1.56,2.03-3.89,1.18-5.93c-0.85-2.04-2.82-3.36-5.02-3.36c0,0-0.01,0-0.01,0l-18.18,0.03l0.03-18.18
				c0-2.21-1.32-4.18-3.36-5.03c-2.04-0.85-4.37-0.38-5.93,1.18l-21.29,21.29C228.37,140.34,227.13,143.78,227.46,147.29z
				 M237.96,144.93l13.44-13.44l-0.03,17.14l17.14-0.02l-13.44,13.44c-0.38,0.38-0.9,0.56-1.43,0.51l-14.81-1.39l-1.39-14.81
				C237.39,145.83,237.58,145.3,237.96,144.93z"/>
		</g>
	</g>
</g>
</svg>
