<?xml version="1.0" encoding="utf-8"?>
<!-- Generator: Adobe Illustrator 28.1.0, SVG Export Plug-In . SVG Version: 6.00 Build 0)  -->
<svg version="1.1" id="Capa_1" xmlns="http://www.w3.org/2000/svg" xmlns:xlink="http://www.w3.org/1999/xlink" x="0px" y="0px"
	 viewBox="0 0 400 400" style="enable-background:new 0 0 400 400;" xml:space="preserve">
<style type="text/css">
	.st0{fill:#202B52;}
</style>
<g>
	<g>
		<g>
			<path class="st0" d="M200,179.65c1.09,0,2.2,0.09,3.29,0.27c2.76,0.45,5.35-1.43,5.8-4.19c0.44-2.76-1.43-5.35-4.19-5.8
				c-1.62-0.26-3.27-0.39-4.9-0.39c-16.8,0-30.46,13.66-30.46,30.46s13.66,30.46,30.46,30.46s30.46-13.66,30.46-30.46
				c0-1.66-0.14-3.31-0.41-4.92c-0.46-2.75-3.07-4.62-5.82-4.15c-2.75,0.46-4.61,3.07-4.15,5.82c0.18,1.06,0.27,2.15,0.27,3.25
				c0,11.22-9.13,20.35-20.35,20.35s-20.35-9.13-20.35-20.35C179.66,188.78,188.78,179.65,200,179.65z"/>
			<path class="st0" d="M222.6,147.55c0.88-2.65-0.56-5.51-3.21-6.39c-6.22-2.06-12.75-3.11-19.39-3.11
				c-34.16,0-61.95,27.79-61.95,61.95s27.79,61.95,61.95,61.95s61.95-27.79,61.95-61.95c0-6.63-1.04-13.15-3.1-19.38
				c-0.88-2.65-3.74-4.09-6.39-3.22c-2.65,0.88-4.09,3.74-3.22,6.39c1.72,5.21,2.59,10.66,2.59,16.21
				c0,28.59-23.25,51.84-51.83,51.84s-51.84-23.26-51.84-51.84s23.26-51.83,51.84-51.83c5.56,0,11.01,0.87,16.21,2.59
				C218.86,151.64,221.72,150.2,222.6,147.55z"/>
			<path class="st0" d="M285.56,162.42c-1.12-2.56-4.11-3.72-6.67-2.59c-2.56,1.13-3.72,4.11-2.59,6.67
				c4.65,10.57,7.01,21.85,7.01,33.5c0,45.95-37.38,83.33-83.32,83.33c-45.95,0-83.33-37.38-83.33-83.33
				c0-45.94,37.38-83.32,83.33-83.32c11.65,0,22.93,2.36,33.5,7.01c2.55,1.12,5.54-0.03,6.67-2.59s-0.03-5.54-2.59-6.67
				c-11.87-5.22-24.51-7.87-37.58-7.87c-51.52,0-93.44,41.91-93.44,93.43s41.92,93.44,93.44,93.44s93.43-41.92,93.43-93.44
				C293.44,186.93,290.79,174.29,285.56,162.42z"/>
			<path class="st0" d="M227.71,146.82l1.57,16.75l-32.85,32.85c-1.98,1.98-1.98,5.18,0,7.15c0.99,0.99,2.28,1.48,3.58,1.48
				c1.29,0,2.59-0.49,3.58-1.48l32.85-32.85l16.75,1.57c0.38,0.03,0.75,0.05,1.12,0.05c3.15,0,6.16-1.24,8.41-3.49l21.47-21.47
				c1.58-1.58,2.04-3.93,1.19-5.98c-0.85-2.06-2.84-3.38-5.07-3.38h-0.01l-18.34,0.03l0.03-18.34c0-2.23-1.33-4.22-3.39-5.08
				c-2.06-0.85-4.41-0.39-5.98,1.19l-21.47,21.47C228.63,139.8,227.37,143.28,227.71,146.82z M238.29,144.44l13.56-13.56
				l-0.03,17.29l17.29-0.03l-13.56,13.56c-0.38,0.38-0.91,0.57-1.44,0.52l-14.94-1.4l-1.4-14.94
				C237.72,145.34,237.91,144.82,238.29,144.44z"/>
		</g>
	</g>
</g>
</svg>
