<?xml version="1.0" encoding="utf-8"?>
<!-- Generator: Adobe Illustrator 28.1.0, SVG Export Plug-In . SVG Version: 6.00 Build 0)  -->
<svg version="1.1" id="Capa_1" xmlns="http://www.w3.org/2000/svg" xmlns:xlink="http://www.w3.org/1999/xlink" x="0px" y="0px"
	 viewBox="0 0 400 400" style="enable-background:new 0 0 400 400;" xml:space="preserve">
<style type="text/css">
	.st0{fill:#202B52;}
</style>
<g>
	<g>
		<g>
			<path class="st0" d="M254.42,142.65c1.28,0,2.56-0.49,3.54-1.47l13.82-13.82c1.95-1.96,1.95-5.12,0-7.08
				c-1.96-1.95-5.12-1.95-7.08,0l-13.82,13.82c-1.95,1.96-1.95,5.12,0,7.08C251.85,142.16,253.13,142.65,254.42,142.65z"/>
			<path class="st0" d="M218.43,122.62c0.43,0.12,0.87,0.17,1.3,0.17c2.21,0,4.23-1.48,4.83-3.71l5.06-18.88
				c0.72-2.67-0.87-5.42-3.54-6.13c-2.67-0.72-5.42,0.87-6.13,3.54l-5.06,18.88C214.18,119.15,215.76,121.9,218.43,122.62z"/>
			<path class="st0" d="M174.92,119.21c0.6,2.24,2.62,3.71,4.83,3.71c0.43,0,0.87-0.06,1.3-0.17c2.67-0.72,4.26-3.46,3.54-6.13
				l-5.06-18.88c-0.72-2.67-3.46-4.26-6.13-3.54s-4.26,3.46-3.54,6.13L174.92,119.21z"/>
			<path class="st0" d="M141.67,141.56c0.98,0.98,2.26,1.47,3.54,1.47s2.56-0.49,3.54-1.47c1.96-1.96,1.96-5.12,0-7.08l-13.82-13.82
				c-1.95-1.95-5.12-1.95-7.08,0c-1.96,1.96-1.96,5.12,0,7.08L141.67,141.56z"/>
			<path class="st0" d="M105.17,172.49l18.88,5.06c0.43,0.12,0.87,0.17,1.3,0.17c2.21,0,4.23-1.48,4.83-3.71
				c0.72-2.67-0.87-5.42-3.54-6.13l-18.88-5.06c-2.67-0.72-5.42,0.87-6.13,3.54C100.91,169.03,102.5,171.77,105.17,172.49z"/>
			<path class="st0" d="M124.18,207.85l-18.88,5.06c-2.67,0.72-4.26,3.46-3.54,6.13c0.6,2.24,2.62,3.71,4.83,3.71
				c0.43,0,0.86-0.06,1.3-0.17l18.88-5.06c2.67-0.72,4.26-3.46,3.54-6.13C129.6,208.72,126.85,207.13,124.18,207.85z"/>
			<path class="st0" d="M294.83,212.39l-18.88-5.06c-2.67-0.72-5.42,0.87-6.13,3.54c-0.72,2.67,0.87,5.42,3.54,6.13l18.88,5.06
				c0.43,0.12,0.87,0.17,1.3,0.17c2.21,0,4.23-1.48,4.83-3.71C299.09,215.85,297.5,213.11,294.83,212.39z"/>
			<path class="st0" d="M274.52,177.2c0.43,0,0.87-0.06,1.3-0.17l18.88-5.06c2.67-0.72,4.26-3.46,3.54-6.13s-3.46-4.26-6.13-3.54
				l-18.88,5.06c-2.67,0.72-4.26,3.46-3.54,6.13C270.28,175.73,272.31,177.2,274.52,177.2z"/>
			<path class="st0" d="M200.92,130.54c-17.08-0.64-33.27,5.52-45.56,17.35c-12.3,11.84-19.07,27.76-19.07,44.83
				c0,21.95,11.22,41.85,30.02,53.24c1.73,1.05,2.77,2.87,2.77,4.86v8.08h-4.32c-5.16,0-9.35,4.2-9.35,9.35v10.02
				c0,5.16,4.2,9.35,9.35,9.35h2.29v6.03c0,6.86,5.59,12.45,12.45,12.45h38.04c6.86,0,12.45-5.58,12.45-12.45v-6.03h2.29
				c5.16,0,9.36-4.2,9.36-9.35v-10.02c0-5.16-4.2-9.35-9.36-9.35h-4.32v-8.08c0-1.99,1.04-3.81,2.78-4.87
				c18.61-11.28,29.83-30.99,30-52.72c0.13-16.2-5.99-31.62-17.25-43.43C232.22,137.99,217.1,131.15,200.92,130.54z M219.97,293.66
				c0,1.34-1.09,2.44-2.44,2.44h-38.04c-1.34,0-2.44-1.09-2.44-2.44v-6.03h42.91v6.03H219.97z M231.61,277.62h-66.2v-8.71h66.2
				V277.62z M225.54,237.39c-4.69,2.84-7.61,7.99-7.61,13.43v8.08h-38.85v-8.08c0-5.52-2.84-10.54-7.59-13.42
				c-15.78-9.56-25.19-26.27-25.19-44.68c0-14.32,5.68-27.68,16-37.62c10.31-9.93,23.9-15.09,38.24-14.56
				c27.9,1.06,50.41,24.66,50.18,52.61C250.57,211.38,241.16,227.92,225.54,237.39z"/>
			<path class="st0" d="M198.78,153.68c-21.42,0-38.85,17.43-38.85,38.85c0,2.77,2.24,5.01,5.01,5.01c2.76,0,5.01-2.24,5.01-5.01
				c0-15.9,12.94-28.84,28.84-28.84c2.77,0,5.01-2.24,5.01-5.01C203.79,155.92,201.54,153.68,198.78,153.68z"/>
			<path class="st0" d="M172.69,204.85c-1.18-2.5-4.17-3.57-6.67-2.39c-2.5,1.18-3.57,4.17-2.39,6.67c0.65,1.37,1.39,2.72,2.19,4.01
				c0.95,1.52,2.58,2.35,4.25,2.35c0.91,0,1.83-0.25,2.65-0.76c2.34-1.47,3.05-4.56,1.58-6.9
				C173.72,206.86,173.17,205.86,172.69,204.85z"/>
			<path class="st0" d="M185.34,218.07c-0.78-0.41-1.55-0.86-2.29-1.34c-2.32-1.51-5.42-0.86-6.93,1.46s-0.86,5.42,1.46,6.93
				c1,0.65,2.03,1.26,3.08,1.81c0.75,0.39,1.54,0.58,2.33,0.58c1.8,0,3.54-0.97,4.43-2.67
				C188.73,222.38,187.79,219.36,185.34,218.07z"/>
		</g>
	</g>
</g>
</svg>
