<?xml version="1.0" encoding="utf-8"?>
<!-- Generator: Adobe Illustrator 28.1.0, SVG Export Plug-In . SVG Version: 6.00 Build 0)  -->
<svg version="1.1" id="Capa_1" xmlns="http://www.w3.org/2000/svg" xmlns:xlink="http://www.w3.org/1999/xlink" x="0px" y="0px"
	 viewBox="0 0 400 400" style="enable-background:new 0 0 400 400;" xml:space="preserve">
<style type="text/css">
	.st0{fill:#202B52;}
</style>
<g>
	<g>
		<g>
			<path class="st0" d="M110.3,282.15h174.38v-21.01H272c-2.77,0-5.01-2.24-5.01-5.01s2.24-5.01,5.01-5.01h12.68v-20.69H272
				c-2.77,0-5.01-2.24-5.01-5.01s2.24-5.01,5.01-5.01h12.68v-20.69H272c-2.77,0-5.01-2.24-5.01-5.01s2.24-5.01,5.01-5.01h12.68V169
				H272c-2.77,0-5.01-2.24-5.01-5.01s2.24-5.01,5.01-5.01h12.68v-46.14c0-2.77,2.24-5.01,5.01-5.01c2.77,0,5.01,2.24,5.01,5.01
				v179.34H110.3c-2.77,0-5.01-2.24-5.01-5.01S107.54,282.15,110.3,282.15z"/>
			<path class="st0" d="M226.27,214.31h33.41v62.82h-33.41L226.27,214.31L226.27,214.31z M236.3,267.11h13.37v-42.78H236.3V267.11z"
				/>
			<path class="st0" d="M215.86,277.14h-33.41V175.66h33.41V277.14z M205.83,185.68h-13.37v81.43h13.37V185.68z"/>
			<path class="st0" d="M172.03,277.14h-33.41v-87.45h33.41V277.14z M162,199.71h-13.37v67.4H162V199.71z"/>
			<path class="st0" d="M254.67,205.01c-1.29,0-2.57-0.49-3.55-1.47l-51.88-52.02l-44.2,27.17l-34.12-25.41
				c-2.22-1.65-2.68-4.79-1.03-7.01s4.79-2.68,7.01-1.03l28.68,21.35l45.16-27.77l57.47,57.63c1.95,1.96,1.95,5.13-0.01,7.09
				C257.24,204.52,255.96,205.01,254.67,205.01z"/>
		</g>
	</g>
</g>
</svg>
