<?xml version="1.0" encoding="utf-8"?>
<!-- Generator: Adobe Illustrator 28.1.0, SVG Export Plug-In . SVG Version: 6.00 Build 0)  -->
<svg version="1.1" id="Capa_1" xmlns="http://www.w3.org/2000/svg" xmlns:xlink="http://www.w3.org/1999/xlink" x="0px" y="0px"
	 viewBox="0 0 400 400" style="enable-background:new 0 0 400 400;" xml:space="preserve">
<style type="text/css">
	.st0{fill:#202B52;}
</style>
<g>
	<g>
		<g>
			<path class="st0" d="M84.33,154.35l54.41-53.85c5.52-5.46,14.48-5.44,19.97,0.05l12.51,12.51c3.92,3.92,5.03,9.62,3.37,14.56
				l5.14,4.7c0.88,0.8,2.1,1.15,3.27,0.92l2.52-0.48c4.44-0.85,8.96,0.18,12.55,2.78c8.36-3.76,15.08-2.29,19.44-0.19
				c1.87,0.91,4.04,0.56,5.4-0.87l3.61-3.8c-3.4-5.46-2.74-12.77,1.99-17.5l12.51-12.51c5.46-5.46,14.4-5.51,19.92-0.1l54.69,53.57
				c2.72,2.66,4.23,6.23,4.25,10.04s-1.45,7.39-4.15,10.08l-13.35,13.35c-2.67,2.67-6.23,4.15-10.01,4.15c-0.01,0-0.02,0-0.04,0
				c-1.89,0-3.72-0.38-5.41-1.08l-2.59,2.71c-1.42,1.49-1.99,3.6-1.51,5.65c1.08,4.62,1.24,11.55-3.31,19.56
				c5,6.79,4.51,16.47-1.52,22.69l-4.83,4.97l0.01,0.01l-20.21,20.81l-0.03,0.04l-17.03,17.56l-0.65,0.66l-8.55,8.81
				c-3.01,3.1-7.04,4.82-11.35,4.86c-0.04,0-0.08,0-0.13,0c-4.27,0-8.28-1.66-11.3-4.68l-0.89-0.89l-5.07,5.07
				c-3.36,3.36-7.77,5.04-12.19,5.04c-4.41,0-8.83-1.68-12.19-5.04c-3.24-3.24-5.02-7.53-5.05-12.1c-4.57-0.02-8.87-1.81-12.1-5.05
				c-3.24-3.24-5.02-7.53-5.05-12.1c-4.57-0.02-8.87-1.81-12.1-5.05c-3.23-3.23-5.02-7.52-5.05-12.08
				c-4.56-0.03-8.85-1.82-12.08-5.05c-3.26-3.26-5.05-7.58-5.05-12.19c0-4.6,1.79-8.93,5.05-12.19l3.64-3.64
				c-6.46-9.01-7.19-16.69-6.53-21.78c0.23-1.79-0.26-3.55-1.36-4.82l-2.53-2.9c-2.26,1.49-4.9,2.3-7.67,2.31c-0.02,0-0.05,0-0.08,0
				c-3.78,0-7.33-1.47-10.01-4.15l-13.35-13.35c-2.68-2.68-4.16-6.25-4.15-10.05C80.14,160.58,81.63,157.02,84.33,154.35z
				 M292.35,181.51h0.01c1.04,0,2.01-0.4,2.75-1.14l13.35-13.35c0.74-0.74,1.14-1.72,1.14-2.77c-0.01-1.05-0.42-2.02-1.17-2.76
				l-54.69-53.57c-0.75-0.74-1.74-1.11-2.72-1.11c-1,0-1.99,0.38-2.75,1.13l-12.51,12.51c-1.51,1.51-1.51,3.97-0.01,5.48
				l53.85,54.41C290.33,181.1,291.31,181.51,292.35,181.51z M254.14,207.49c-1.36-1.36-3.14-2.04-4.93-2.04
				c-1.78,0-3.57,0.68-4.93,2.04c-2.72,2.72-2.72,7.14,0,9.85l21.64,21.64l4.69-4.83c2.77-2.85,2.73-7.45-0.08-10.26L254.14,207.49z
				 M227.86,215.51c-2.72-2.72-7.14-2.72-9.86,0c-1.32,1.32-2.04,3.07-2.04,4.93s0.72,3.61,2.04,4.93l31.04,31.04l9.71-10
				L227.86,215.51z M205,246.66l27.15,27.15l9.7-10.01l-27-27c-2.72-2.72-7.14-2.72-9.86,0C202.29,239.52,202.29,243.94,205,246.66z
				 M215.26,288.76c1.54-0.01,2.99-0.63,4.06-1.74l5.66-5.84l-26.17-26.17c-2.72-2.72-7.14-2.72-9.86,0c-2.72,2.72-2.72,7.14,0,9.85
				l17.69,17.69l0,0l0,0l4.51,4.51C212.27,288.18,213.71,288.76,215.26,288.76z M129.45,198.65c-0.38,2.96,0.09,7.42,3.73,13.06
				l21.38-21.38c2-2,5.26-2,7.26,0c2.01,2.01,2.01,5.26,0,7.26L129.42,230c-1.32,1.32-2.04,3.07-2.04,4.93
				c0,1.86,0.73,3.61,2.04,4.93c1.32,1.32,3.07,2.04,4.93,2.04c1.86,0,3.61-0.72,4.93-2.04c2.01-2.01,5.26-2,7.26,0
				c0,0,0,0,0.01,0.01l0,0c2,2,2,5.26,0,7.26c-1.32,1.32-2.04,3.07-2.04,4.93c0,1.86,0.72,3.61,2.04,4.93
				c1.32,1.32,3.07,2.04,4.93,2.04c1.86,0,3.61-0.72,4.93-2.04c2.01-2.01,5.26-2,7.26,0c0.01,0.01,0.01,0.01,0.02,0.02
				c0.01,0.01,0.01,0.01,0.02,0.01c2,2,2,5.26,0,7.26c-1.32,1.32-2.04,3.07-2.04,4.93s0.73,3.61,2.04,4.93
				c1.32,1.32,3.07,2.04,4.93,2.04c1.86,0,3.61-0.72,4.93-2.04c2.01-2.01,5.26-2,7.26,0c0.01,0.01,0.01,0.01,0.02,0.02
				c0.01,0.01,0.01,0.01,0.02,0.01c2,2,2,5.26,0,7.26c-1.32,1.32-2.04,3.07-2.04,4.93s0.72,3.61,2.04,4.93
				c2.72,2.72,7.14,2.72,9.86,0l5.07-5.07l-14.07-14.07c-6.72-6.72-6.72-17.66,0-24.38c3.07-3.07,7.01-4.73,11.03-5
				c-0.28-4.75,1.38-9.6,5.01-13.22c2.38-2.38,5.32-3.97,8.53-4.66c-0.38-1.44-0.58-2.93-0.58-4.45c0-4.6,1.79-8.93,5.05-12.19
				c3.26-3.26,7.58-5.05,12.19-5.05c3.68,0,7.18,1.15,10.1,3.27c0.85-2.31,2.2-4.44,3.99-6.23c6.72-6.72,17.66-6.72,24.38,0
				l10.52,10.52c1.54-3.9,1.43-7.11,0.9-9.36c-1.26-5.43,0.27-11.07,4.09-15.07l2.04-2.13l-45.45-45.92l-3.15,3.31
				c-4.45,4.68-11.41,5.9-17.31,3.04c-2.08-1-4.32-1.31-6.69-0.93l28.17,28.76c3.09,3.15,4.22,7.75,2.94,11.98
				c-1.28,4.26-4.64,7.36-8.97,8.29c-2.97,0.64-6.33,1.08-9.94,1.08c-9.19,0-19.96-2.89-29.86-12.78c-2.01-2-2-5.26,0-7.26
				s5.26-2,7.26,0c8.44,8.44,18.66,11.43,30.38,8.92c0.86-0.19,1.18-0.84,1.29-1.21c0.1-0.32,0.24-1.14-0.45-1.84l-33.44-34.15
				c-0.03-0.02-0.05-0.05-0.07-0.08l-0.85-0.87c-1.4-1.43-3.4-2.05-5.35-1.67l-2.52,0.48c-4.34,0.83-8.88-0.45-12.14-3.43
				l-4.36-3.99l-45.63,46.58l2.85,3.28C128.68,189.26,130.06,193.95,129.45,198.65z M91.54,167.16l13.35,13.35
				c0.74,0.74,1.69,1.14,2.77,1.14c1.05-0.01,2.02-0.42,2.76-1.17l53.57-54.69c1.48-1.52,1.47-3.97-0.03-5.47l-12.51-12.51
				c-0.76-0.76-1.75-1.14-2.75-1.14c-0.99,0-1.98,0.37-2.73,1.12l-54.41,53.85c-0.74,0.73-1.15,1.71-1.15,2.75
				C90.4,165.45,90.8,166.43,91.54,167.16z"/>
			<path class="st0" d="M285.77,165.24c0-4.34,3.52-7.86,7.86-7.86s7.86,3.52,7.86,7.86s-3.52,7.86-7.86,7.86
				C289.29,173.1,285.77,169.58,285.77,165.24z"/>
		</g>
	</g>
</g>
</svg>
