<?xml version="1.0" encoding="utf-8"?>
<!-- Generator: Adobe Illustrator 28.1.0, SVG Export Plug-In . SVG Version: 6.00 Build 0)  -->
<svg version="1.1" id="Capa_1" xmlns="http://www.w3.org/2000/svg" xmlns:xlink="http://www.w3.org/1999/xlink" x="0px" y="0px"
	 viewBox="0 0 400 400" style="enable-background:new 0 0 400 400;" xml:space="preserve">
<style type="text/css">
	.st0{fill:#202B52;}
</style>
<path class="st0" d="M120.08,260.07c-0.34-0.34-0.63-0.73-0.86-1.16c-12.09-16.53-19.24-36.89-19.24-58.89c0-0.01,0-0.01,0-0.02
	c0-0.01,0-0.01,0-0.02c0-22,7.15-42.35,19.24-58.88c0.23-0.43,0.52-0.83,0.87-1.18c18.04-23.94,46.58-39.54,78.71-39.92l1.2-0.59
	l1.2,0.59c32.14,0.38,60.67,15.99,78.72,39.93c0.34,0.34,0.63,0.73,0.86,1.16c12.09,16.54,19.24,36.9,19.24,58.91
	s-7.15,42.37-19.25,58.91c-0.23,0.42-0.51,0.81-0.85,1.14c-18.04,23.95-46.59,39.56-78.73,39.94l-1.2,0.59l-1.2-0.59
	C166.66,299.62,138.12,284.01,120.08,260.07z M289.85,205.01h-31.94c-0.75,15.98-5.02,32.05-11.87,46.52h27.7
	C283.08,238.21,288.9,222.25,289.85,205.01z M273.73,148.47h-27.7c6.85,14.47,11.12,30.53,11.87,46.52h31.94
	C288.9,177.75,283.07,161.79,273.73,148.47z M110.15,194.99h31.94c0.75-15.98,5.02-32.05,11.87-46.52h-27.7
	C116.93,161.79,111.1,177.75,110.15,194.99z M152.14,194.99h42.85v-46.52h-29.94C157.64,162.64,152.95,178.83,152.14,194.99z
	 M194.99,138.44v-24.77c-9.11,6.07-17.3,14.65-24.02,24.77H194.99z M205.01,113.68v24.77h24.02
	C222.31,128.33,214.12,119.75,205.01,113.68z M205.01,148.47v46.52h42.85c-0.82-16.15-5.5-32.35-12.91-46.52H205.01z M247.86,205.01
	h-42.85v46.52h29.94C242.36,237.36,247.05,221.17,247.86,205.01z M205.01,261.56v24.76c9.11-6.07,17.3-14.65,24.02-24.76H205.01z
	 M194.99,286.32v-24.76h-24.02C177.69,271.67,185.88,280.25,194.99,286.32z M194.99,251.53v-46.52h-42.85
	c0.81,16.15,5.5,32.35,12.91,46.52H194.99z M142.09,205.01h-31.95c0.95,17.24,6.78,33.19,16.12,46.52h27.7
	C147.12,237.06,142.84,221,142.09,205.01z M134.42,138.44h24.86c5.97-10.13,13.24-19.14,21.43-26.35
	C162.67,116.06,146.64,125.44,134.42,138.44z M219.29,112.1c8.18,7.2,15.46,16.22,21.43,26.35h24.86
	C253.36,125.44,237.33,116.06,219.29,112.1z M265.58,261.56h-24.86c-5.97,10.13-13.24,19.14-21.43,26.35
	C237.33,283.95,253.37,274.56,265.58,261.56z M180.71,287.9c-8.18-7.2-15.46-16.22-21.43-26.35h-24.86
	C146.64,274.56,162.67,283.95,180.71,287.9z"/>
</svg>
