<?xml version="1.0" encoding="utf-8"?>
<!-- Generator: Adobe Illustrator 28.1.0, SVG Export Plug-In . SVG Version: 6.00 Build 0)  -->
<svg version="1.1" id="Capa_1" xmlns="http://www.w3.org/2000/svg" xmlns:xlink="http://www.w3.org/1999/xlink" x="0px" y="0px"
	 viewBox="0 0 400 400" style="enable-background:new 0 0 400 400;" xml:space="preserve">
<style type="text/css">
	.st0{fill:#202B52;}
</style>
<path class="st0" d="M120.74,217.99h46.2c6.75,0,12.23-5.41,12.23-12.06s-5.48-12.06-12.23-12.06h-46.2
	c-6.74,0-12.23,5.41-12.23,12.06C108.51,212.59,114,217.99,120.74,217.99z M120.74,184.95h7.85v-31.67c0-4.36,4.98-7.78,11.33-7.78
	h27.38l30.44-30.02V97.4c-12.43-1.13-22.19-11.47-22.19-24.01c0-13.3,10.97-24.12,24.46-24.12c13.48,0,24.46,10.82,24.46,24.12
	c0,12.54-9.77,22.88-22.19,24.01v18.08l30.44,30.02h27.38c6.35,0,11.32,3.42,11.32,7.78v31.67h7.85c11.74,0,21.29,9.42,21.29,20.99
	s-9.55,20.99-21.29,20.99h-7.85v31.25c0,4.27-4.97,7.61-11.32,7.61h-13.41c-1.13,10.53-10.19,18.76-21.17,18.76h-23.25v18.01h-0.52
	c12.67,0.88,22.71,11.33,22.71,24.05c0,13.3-10.97,24.12-24.46,24.12c-13.49,0-24.46-10.82-24.46-24.12
	c0-12.72,10.04-23.16,22.71-24.05h-0.52v-18.01h-18.42c-10.97,0-20.03-8.24-21.16-18.76h-18.24c-6.35,0-11.33-3.34-11.33-7.61
	v-31.25h-7.85c-11.74,0-21.29-9.42-21.29-20.99C99.45,194.36,109,184.95,120.74,184.95z M184.6,326.61c0,8.37,6.91,15.19,15.4,15.19
	c8.49,0,15.4-6.81,15.4-15.19c0-8.37-6.91-15.18-15.4-15.18C191.51,311.43,184.6,318.24,184.6,326.61z M215.4,73.39
	c0-8.37-6.91-15.19-15.4-15.19c-8.49,0-15.4,6.81-15.4,15.19c0,8.37,6.91,15.18,15.4,15.18C208.49,88.57,215.4,81.76,215.4,73.39z
	 M200,125.88l-22.16,21.85L200,169.58l22.16-21.85L200,125.88z M291.49,205.94c0-6.65-5.49-12.06-12.23-12.06h-46.2
	c-6.74,0-12.23,5.41-12.23,12.06S226.32,218,233.06,218h46.2C286,217.99,291.49,212.59,291.49,205.94z M179.32,275.61h46.2
	c6.75,0,12.23-5.41,12.23-12.06s-5.48-12.06-12.23-12.06h-46.2c-6.74,0-12.23,5.41-12.23,12.06
	C167.08,270.2,172.57,275.61,179.32,275.61z M133.12,258.18c0,1.28,2.65,3.14,6.8,3.14h18.24c1.13-10.53,10.19-18.76,21.16-18.76
	h46.2c10.97,0,20.03,8.23,21.17,18.76h13.41c4.15,0,6.79-1.86,6.79-3.14v-31.25h-33.82c-11.74,0-21.29-9.42-21.29-20.99
	c0-11.57,9.55-20.99,21.29-20.99h33.82v-31.67c0-1.53-2.97-3.32-6.79-3.32h-27.38L200,182.21l-32.71-32.25h-27.38
	c-3.83,0-6.8,1.78-6.8,3.32v31.67h33.82c11.74,0,21.29,9.42,21.29,20.99c0,11.57-9.55,20.99-21.29,20.99h-33.82v31.25H133.12z"/>
</svg>
