<?xml version="1.0" encoding="utf-8"?>
<!-- Generator: Adobe Illustrator 28.1.0, SVG Export Plug-In . SVG Version: 6.00 Build 0)  -->
<svg version="1.1" id="Capa_1" xmlns="http://www.w3.org/2000/svg" xmlns:xlink="http://www.w3.org/1999/xlink" x="0px" y="0px"
	 viewBox="0 0 400 400" style="enable-background:new 0 0 400 400;" xml:space="preserve">
<style type="text/css">
	.st0{fill:#1F2B52;}
	.st1{fill:#FFFFFF;}
</style>
<rect x="-0.8" y="-0.8" transform="matrix(-1 -1.224647e-16 1.224647e-16 -1 400 400)" class="st0" width="401.6" height="401.6"/>
<path class="st1" d="M120.42,218.07h46.38c6.77,0,12.28-5.43,12.28-12.1c0-6.68-5.5-12.11-12.28-12.11h-46.38
	c-6.77,0-12.28,5.43-12.28,12.11C108.14,212.64,113.65,218.07,120.42,218.07z M120.42,184.89h7.88v-31.8c0-4.38,5-7.81,11.37-7.81
	h27.49l30.56-30.14V96.99c-12.48-1.13-22.28-11.51-22.28-24.11c0-13.35,11.01-24.22,24.56-24.22c13.54,0,24.56,10.86,24.56,24.22
	c0,12.59-9.81,22.97-22.28,24.11v18.15l30.56,30.14h27.49c6.38,0,11.37,3.43,11.37,7.81v31.8h7.88c11.79,0,21.37,9.45,21.37,21.07
	c0,11.62-9.59,21.07-21.37,21.07h-7.88v31.37c0,4.28-4.99,7.64-11.37,7.64h-13.46c-1.14,10.57-10.23,18.84-21.25,18.84h-23.34v18.08
	h-0.52c12.72,0.89,22.8,11.37,22.8,24.14c0,13.35-11.02,24.22-24.56,24.22c-13.54,0-24.56-10.86-24.56-24.22
	c0-12.77,10.08-23.26,22.8-24.14h-0.52v-18.08h-18.49c-11.01,0-20.11-8.27-21.25-18.84h-18.31c-6.38,0-11.37-3.36-11.37-7.64v-31.37
	h-7.88c-11.78,0-21.37-9.45-21.37-21.07C99.05,194.34,108.64,184.89,120.42,184.89z M184.54,327.11c0,8.41,6.94,15.25,15.46,15.25
	c8.52,0,15.46-6.84,15.46-15.25c0-8.41-6.93-15.24-15.46-15.24C191.48,311.87,184.54,318.71,184.54,327.11z M215.46,72.89
	c0-8.41-6.93-15.25-15.46-15.25c-8.52,0-15.46,6.84-15.46,15.25c0,8.41,6.94,15.24,15.46,15.24
	C208.53,88.13,215.46,81.29,215.46,72.89z M200,125.58l-22.25,21.94L200,169.45l22.24-21.94L200,125.58z M291.86,205.96
	c0-6.68-5.51-12.11-12.28-12.11H233.2c-6.77,0-12.28,5.43-12.28,12.11c0,6.68,5.51,12.1,12.28,12.1h46.38
	C286.35,218.07,291.86,212.64,291.86,205.96z M179.23,275.91h46.38c6.77,0,12.28-5.43,12.28-12.1c0-6.68-5.5-12.11-12.28-12.11
	h-46.38c-6.77,0-12.28,5.43-12.28,12.11C166.95,270.48,172.46,275.91,179.23,275.91z M132.85,258.41c0,1.29,2.66,3.16,6.82,3.16
	h18.31c1.14-10.57,10.23-18.83,21.25-18.83h46.38c11.02,0,20.11,8.26,21.25,18.83h13.46c4.16,0,6.82-1.87,6.82-3.16v-31.37H233.2
	c-11.79,0-21.37-9.45-21.37-21.07c0-11.62,9.59-21.07,21.37-21.07h33.95v-31.8c0-1.54-2.98-3.33-6.82-3.33h-27.49L200,182.14
	l-32.84-32.38h-27.49c-3.84,0-6.82,1.79-6.82,3.33v31.8h33.95c11.79,0,21.37,9.45,21.37,21.07c0,11.62-9.59,21.07-21.37,21.07
	h-33.95V258.41z"/>
</svg>
