<?xml version="1.0" encoding="utf-8"?>
<!-- Generator: Adobe Illustrator 28.1.0, SVG Export Plug-In . SVG Version: 6.00 Build 0)  -->
<svg version="1.1" id="Capa_1" xmlns="http://www.w3.org/2000/svg" xmlns:xlink="http://www.w3.org/1999/xlink" x="0px" y="0px"
	 viewBox="0 0 400 400" style="enable-background:new 0 0 400 400;" xml:space="preserve">
<style type="text/css">
	.st0{fill:#202B52;}
</style>
<g>
	<g>
		<g>
			<path class="st0" d="M262.04,181.93c-5.99,0-11.82-1.68-16.85-4.86c-2.34-1.48-3.04-4.58-1.56-6.92s4.58-3.03,6.92-1.56
				c3.42,2.17,7.4,3.31,11.49,3.31c11.94,0,21.65-9.71,21.65-21.64c0-11.93-9.71-21.64-21.65-21.64c-7.67,0-14.83,4.12-18.69,10.74
				c-1.39,2.39-4.46,3.2-6.85,1.81s-3.2-4.46-1.81-6.85c5.65-9.7,16.13-15.72,27.35-15.72c17.46,0,31.67,14.2,31.67,31.66
				S279.5,181.93,262.04,181.93z"/>
			<path class="st0" d="M273.66,233.59h27c2.76,0,5-2.25,5-5.01v-8.64c0-10.58-7.8-20.78-20.88-27.3c-2.48-1.23-3.48-4.24-2.25-6.72
				s4.24-3.49,6.72-2.25c16.55,8.25,26.43,21.81,26.43,36.27v8.64c0,8.29-6.74,15.03-15.02,15.03h-27c-2.77,0-5.01-2.24-5.01-5.01
				S270.89,233.59,273.66,233.59z"/>
			<path class="st0" d="M197.31,204.42c-21.1,0-38.27-17.17-38.27-38.27s17.17-38.27,38.27-38.27s38.27,17.17,38.27,38.27
				S218.41,204.42,197.31,204.42z M197.31,137.91c-15.57,0-28.24,12.67-28.24,28.24s12.67,28.24,28.24,28.24
				s28.24-12.67,28.24-28.24S212.89,137.91,197.31,137.91z"/>
			<path class="st0" d="M163.92,208.94c2.48-1.23,5.49-0.22,6.72,2.25c1.23,2.48,0.23,5.49-2.25,6.72
				c-16.75,8.34-26.75,21.49-26.75,35.17v10.78c0,4.13,3.36,7.49,7.49,7.49h96.37c4.13,0,7.49-3.36,7.49-7.49v-10.78
				c0-13.67-10-26.82-26.75-35.17c-2.48-1.23-3.48-4.24-2.25-6.72s4.24-3.48,6.72-2.25c20.22,10.08,32.3,26.59,32.3,44.14v10.78
				c0,9.66-7.86,17.52-17.52,17.52h-96.37c-9.66,0-17.52-7.86-17.52-17.52v-10.78C131.61,235.52,143.69,219.01,163.92,208.94z"/>
			<path class="st0" d="M161.65,137.04c-2.12,1.78-5.28,1.5-7.06-0.62c-4.14-4.94-10.2-7.78-16.62-7.78
				c-11.93,0-21.64,9.71-21.64,21.64s9.71,21.64,21.64,21.64c2.57,0,5.07-0.44,7.45-1.31c2.6-0.95,5.48,0.39,6.43,2.99
				s-0.39,5.48-2.99,6.43c-3.48,1.27-7.15,1.92-10.89,1.92c-17.46,0-31.66-14.2-31.66-31.66s14.2-31.66,31.66-31.66
				c9.39,0,18.25,4.14,24.3,11.36C164.05,132.1,163.77,135.26,161.65,137.04z"/>
			<path class="st0" d="M110.77,183.67c2.48-1.23,5.49-0.22,6.72,2.25c1.23,2.48,0.22,5.49-2.25,6.72
				c-13.08,6.51-20.89,16.71-20.89,27.3v8.64c0,2.76,2.25,5.01,5.01,5.01h21.62c2.77,0,5.01,2.24,5.01,5.01s-2.24,5.01-5.01,5.01
				H99.35c-8.29,0-15.03-6.74-15.03-15.03v-8.64C84.32,205.47,94.2,191.91,110.77,183.67z"/>
		</g>
	</g>
</g>
</svg>
