<?xml version="1.0" encoding="utf-8"?>
<!-- Generator: Adobe Illustrator 28.1.0, SVG Export Plug-In . SVG Version: 6.00 Build 0)  -->
<svg version="1.1" id="Capa_1" xmlns="http://www.w3.org/2000/svg" xmlns:xlink="http://www.w3.org/1999/xlink" x="0px" y="0px"
	 viewBox="0 0 400 400" style="enable-background:new 0 0 400 400;" xml:space="preserve">
<style type="text/css">
	.st0{fill:#202B52;}
</style>
<g>
	<g>
		<path class="st0" d="M200,102.67c-53.67,0-97.32,43.65-97.32,97.33c0,53.67,43.65,97.33,97.32,97.33s97.32-43.66,97.32-97.33
			C297.32,146.32,253.67,102.67,200,102.67z M200,286.05c-47.43,0-86.07-38.59-86.07-86.05c0-47.48,38.64-86.07,86.07-86.07
			c47.46,0,86.06,38.6,86.06,86.07C286.06,247.46,247.46,286.05,200,286.05z"/>
		<path class="st0" d="M200,130.52c3.11,0,5.64-2.53,5.64-5.64v-5c0-3.11-2.53-5.63-5.64-5.63c-3.09,0-5.61,2.51-5.61,5.63v5
			C194.39,127.99,196.91,130.52,200,130.52z"/>
		<path class="st0" d="M242.89,125.76c-2.67-1.56-6.13-0.62-7.7,2.07l-2.47,4.32c-1.57,2.7-0.64,6.15,2.05,7.67
			c0.89,0.52,1.86,0.78,2.8,0.78c1.94,0,3.82-1,4.87-2.8l2.52-4.33C246.53,130.78,245.6,127.31,242.89,125.76z"/>
		<path class="st0" d="M260.19,165.32c1.05,1.79,2.93,2.82,4.88,2.82c0.97,0,1.93-0.26,2.82-0.76l4.33-2.49
			c2.71-1.56,3.61-5,2.08-7.7c-1.55-2.69-5.01-3.62-7.69-2.09l-4.36,2.49C259.56,159.16,258.65,162.61,260.19,165.32z"/>
		<path class="st0" d="M269.46,200.11c0,3.09,2.56,5.61,5.65,5.61h5.01c3.11,0,5.63-2.52,5.63-5.61c0-3.13-2.52-5.63-5.63-5.63
			h-5.01C272.02,194.48,269.46,196.98,269.46,200.11z"/>
		<path class="st0" d="M272.12,235.28l-4.33-2.49c-2.7-1.55-6.15-0.63-7.67,2.08c-1.57,2.7-0.65,6.11,2.04,7.67l4.33,2.5
			c0.88,0.5,1.85,0.76,2.83,0.76c1.96,0,3.85-1.02,4.88-2.84C275.73,240.28,274.82,236.84,272.12,235.28z"/>
		<path class="st0" d="M242.3,262.29c-1.57-2.67-5.01-3.59-7.69-2.04c-2.69,1.55-3.64,5.01-2.07,7.72l2.48,4.32
			c1.05,1.8,2.97,2.83,4.9,2.83c0.96,0,1.93-0.28,2.82-0.77c2.7-1.56,3.61-5.01,2.04-7.69L242.3,262.29z"/>
		<path class="st0" d="M199.82,269.48c-3.12,0-5.64,2.54-5.64,5.64v4.99c0,3.12,2.53,5.64,5.64,5.64c3.09,0,5.63-2.52,5.63-5.64
			v-4.99C205.45,272.02,202.91,269.48,199.82,269.48z"/>
		<path class="st0" d="M165.1,260.07c-2.7-1.57-6.15-0.64-7.71,2.07l-2.48,4.32c-1.6,2.67-0.66,6.13,2.03,7.68
			c0.89,0.51,1.84,0.77,2.81,0.77c1.94,0,3.83-0.99,4.88-2.82l2.52-4.33C168.68,265.07,167.79,261.62,165.1,260.07z"/>
		<path class="st0" d="M132.02,232.46l-4.36,2.51c-2.66,1.54-3.61,4.99-2.05,7.67c1.06,1.82,2.96,2.84,4.9,2.84
			c0.93,0,1.91-0.25,2.8-0.76l4.32-2.47c2.72-1.56,3.65-5,2.08-7.72C138.16,231.84,134.72,230.9,132.02,232.46z"/>
		<path class="st0" d="M130.53,199.74c0-3.11-2.49-5.64-5.61-5.64l-5.01-0.03h-0.02c-3.09,0-5.64,2.51-5.64,5.64
			c-0.02,3.09,2.53,5.63,5.61,5.63l5.01,0.03h0.03C127.98,205.38,130.51,202.86,130.53,199.74z"/>
		<path class="st0" d="M137.94,157.33l-4.33-2.51c-2.69-1.59-6.12-0.68-7.7,1.99c-1.58,2.7-0.68,6.16,2.02,7.72l4.32,2.52
			c0.89,0.53,1.88,0.79,2.83,0.79c1.93,0,3.81-1.01,4.86-2.79C141.53,162.34,140.63,158.88,137.94,157.33z"/>
		<path class="st0" d="M157.83,137.58c1.05,1.85,2.93,2.82,4.9,2.82c0.96,0,1.9-0.21,2.81-0.71c2.67-1.56,3.62-5.01,2.08-7.7
			l-2.49-4.32c-1.55-2.71-4.94-3.64-7.68-2.11c-2.69,1.55-3.63,4.98-2.09,7.67L157.83,137.58z"/>
		<path class="st0" d="M228.98,146.88c-2.72-1.53-6.15-0.51-7.62,2.22l-22.48,41.2c-4.36,0.5-7.82,3.77-8.54,8.05l-33,15.62
			c-2.82,1.34-4.02,4.7-2.69,7.5c0.98,2.03,3,3.23,5.12,3.23c0.77,0,1.59-0.17,2.38-0.55l33.03-15.64c1.42,0.8,3.05,1.3,4.81,1.3
			c5.45,0,9.83-4.39,9.83-9.82c0-1.56-0.41-3.02-1.05-4.33l22.46-41.16C232.73,151.77,231.7,148.37,228.98,146.88z"/>
	</g>
</g>
</svg>
