<?xml version="1.0" encoding="utf-8"?>
<!-- Generator: Adobe Illustrator 28.1.0, SVG Export Plug-In . SVG Version: 6.00 Build 0)  -->
<svg version="1.1" id="Capa_1" xmlns="http://www.w3.org/2000/svg" xmlns:xlink="http://www.w3.org/1999/xlink" x="0px" y="0px"
	 viewBox="0 0 400 400" style="enable-background:new 0 0 400 400;" xml:space="preserve">
<style type="text/css">
	.st0{fill:#202B52;}
</style>
<g>
	<g>
		<path class="st0" d="M270.41,129.59c-18.81-18.81-43.81-29.16-70.4-29.16s-51.6,10.36-70.4,29.16
			c-18.81,18.81-29.16,43.81-29.16,70.4s10.36,51.6,29.16,70.4c18.81,18.81,43.81,29.16,70.4,29.16s51.6-10.36,70.4-29.16
			c18.81-18.81,29.16-43.81,29.16-70.4S289.21,148.4,270.41,129.59z M200,289.71c-49.47,0-89.71-40.25-89.71-89.71
			c0-49.47,40.25-89.71,89.71-89.71c49.47,0,89.71,40.25,89.71,89.71C289.71,249.47,249.47,289.71,200,289.71z"/>
		<g>
			<path class="st0" d="M200,172.05c-15.41,0-27.95,12.54-27.95,27.95s12.54,27.95,27.95,27.95s27.95-12.54,27.95-27.95
				S215.41,172.05,200,172.05z M200,221.64c-11.93,0-21.64-9.71-21.64-21.64s9.71-21.64,21.64-21.64s21.64,9.71,21.64,21.64
				S211.93,221.64,200,221.64z"/>
			<path class="st0" d="M221.64,200c0,11.93-9.71,21.64-21.64,21.64v-43.29C211.93,178.36,221.64,188.07,221.64,200z"/>
			<g>
				<path class="st0" d="M198.11,162.6h3.78c0.7,0,1.26-0.56,1.26-1.26v-18.4c0-0.7-0.56-1.26-1.26-1.26h-3.78
					c-0.7,0-1.26,0.56-1.26,1.26v18.4C196.85,162.03,197.41,162.6,198.11,162.6z"/>
				<path class="st0" d="M157.42,161.88l13.01,13.01c0.49,0.49,1.29,0.49,1.78,0l2.67-2.67c0.49-0.49,0.49-1.29,0-1.78l-13.01-13.01
					c-0.49-0.49-1.29-0.49-1.78,0l-2.67,2.67C156.93,160.59,156.93,161.39,157.42,161.88z"/>
				<path class="st0" d="M161.34,196.85h-18.4c-0.7,0-1.26,0.56-1.26,1.26v3.78c0,0.7,0.56,1.26,1.26,1.26h18.4
					c0.7,0,1.26-0.56,1.26-1.26v-3.78C162.6,197.41,162.03,196.85,161.34,196.85z"/>
				<path class="st0" d="M157.42,239.9l2.67,2.67c0.49,0.49,1.29,0.49,1.78,0l13.01-13.01c0.49-0.49,0.49-1.29,0-1.78l-2.67-2.67
					c-0.49-0.49-1.29-0.49-1.78,0l-13.01,13.01C156.93,238.61,156.93,239.41,157.42,239.9z"/>
				<path class="st0" d="M198.11,258.32h3.78c0.7,0,1.26-0.56,1.26-1.26v-18.4c0-0.7-0.56-1.26-1.26-1.26h-3.78
					c-0.7,0-1.26,0.56-1.26,1.26v18.4C196.85,257.76,197.41,258.32,198.11,258.32z"/>
				<path class="st0" d="M225.11,229.57l13.01,13.01c0.49,0.49,1.29,0.49,1.78,0l2.67-2.67c0.49-0.49,0.49-1.29,0-1.78l-13.01-13.01
					c-0.49-0.49-1.29-0.49-1.78,0l-2.67,2.67C224.62,228.28,224.62,229.08,225.11,229.57z"/>
				<path class="st0" d="M237.4,198.11v3.78c0,0.7,0.56,1.26,1.26,1.26h18.4c0.7,0,1.26-0.56,1.26-1.26v-3.78
					c0-0.7-0.56-1.26-1.26-1.26h-18.4C237.97,196.85,237.4,197.41,237.4,198.11z"/>
				<path class="st0" d="M242.58,160.1l-2.67-2.67c-0.49-0.49-1.29-0.49-1.78,0l-13.01,13.01c-0.49,0.49-0.49,1.29,0,1.78l2.67,2.67
					c0.49,0.49,1.29,0.49,1.78,0l13.01-13.01C243.07,161.39,243.07,160.59,242.58,160.1z"/>
			</g>
		</g>
	</g>
</g>
</svg>
