<?xml version="1.0" encoding="utf-8"?>
<!-- Generator: Adobe Illustrator 28.1.0, SVG Export Plug-In . SVG Version: 6.00 Build 0)  -->
<svg version="1.1" id="Capa_1" xmlns="http://www.w3.org/2000/svg" xmlns:xlink="http://www.w3.org/1999/xlink" x="0px" y="0px"
	 viewBox="0 0 400 400" style="enable-background:new 0 0 400 400;" xml:space="preserve">
<style type="text/css">
	.st0{fill:#1F2B52;}
	.st1{fill:#FFFFFF;}
</style>
<rect class="st0" width="400" height="400"/>
<g>
	<g>
		<path class="st1" d="M270.49,129.51c-18.83-18.83-43.86-29.2-70.49-29.2s-51.66,10.37-70.49,29.2
			c-18.83,18.83-29.2,43.86-29.2,70.49s10.37,51.66,29.2,70.49c18.83,18.83,43.86,29.2,70.49,29.2s51.66-10.37,70.49-29.2
			c18.83-18.83,29.2-43.86,29.2-70.49S289.32,148.34,270.49,129.51z M200,289.82c-49.53,0-89.82-40.29-89.82-89.82
			c0-49.53,40.29-89.82,89.82-89.82c49.53,0,89.82,40.29,89.82,89.82C289.82,249.53,249.53,289.82,200,289.82z"/>
		<g>
			<path class="st1" d="M200,172.02c-15.43,0-27.98,12.55-27.98,27.98c0,15.43,12.55,27.98,27.98,27.98
				c15.43,0,27.98-12.55,27.98-27.98C227.98,184.57,215.43,172.02,200,172.02z M200,221.67c-11.95,0-21.67-9.72-21.67-21.67
				c0-11.95,9.72-21.67,21.67-21.67s21.67,9.72,21.67,21.67C221.67,211.95,211.95,221.67,200,221.67z"/>
			<path class="st1" d="M221.67,200c0,11.95-9.72,21.67-21.67,21.67v-43.34C211.95,178.33,221.67,188.05,221.67,200z"/>
			<g>
				<path class="st1" d="M198.11,162.55h3.79c0.7,0,1.26-0.57,1.26-1.26v-18.42c0-0.7-0.57-1.26-1.26-1.26h-3.79
					c-0.7,0-1.26,0.57-1.26,1.26v18.42C196.84,161.99,197.41,162.55,198.11,162.55z"/>
				<path class="st1" d="M157.37,161.84l13.02,13.02c0.49,0.49,1.29,0.49,1.79,0l2.68-2.68c0.49-0.49,0.49-1.29,0-1.79l-13.02-13.02
					c-0.49-0.49-1.29-0.49-1.79,0l-2.68,2.68C156.88,160.54,156.88,161.34,157.37,161.84z"/>
				<path class="st1" d="M161.29,196.84h-18.42c-0.7,0-1.26,0.57-1.26,1.26v3.79c0,0.7,0.57,1.26,1.26,1.26h18.42
					c0.7,0,1.26-0.57,1.26-1.26v-3.79C162.55,197.41,161.99,196.84,161.29,196.84z"/>
				<path class="st1" d="M157.37,239.95l2.68,2.68c0.49,0.49,1.29,0.49,1.79,0l13.02-13.02c0.49-0.49,0.49-1.29,0-1.79l-2.68-2.68
					c-0.49-0.49-1.29-0.49-1.79,0l-13.02,13.02C156.88,238.66,156.88,239.46,157.37,239.95z"/>
				<path class="st1" d="M198.11,258.39h3.79c0.7,0,1.26-0.57,1.26-1.26v-18.42c0-0.7-0.57-1.26-1.26-1.26h-3.79
					c-0.7,0-1.26,0.57-1.26,1.26v18.42C196.84,257.83,197.41,258.39,198.11,258.39z"/>
				<path class="st1" d="M225.14,229.6l13.02,13.02c0.49,0.49,1.29,0.49,1.79,0l2.68-2.68c0.49-0.49,0.49-1.29,0-1.79l-13.02-13.02
					c-0.49-0.49-1.29-0.49-1.79,0l-2.68,2.68C224.65,228.31,224.65,229.11,225.14,229.6z"/>
				<path class="st1" d="M237.45,198.11v3.79c0,0.7,0.57,1.26,1.26,1.26h18.42c0.7,0,1.26-0.57,1.26-1.26v-3.79
					c0-0.7-0.57-1.26-1.26-1.26h-18.42C238.01,196.84,237.45,197.41,237.45,198.11z"/>
				<path class="st1" d="M242.63,160.05l-2.68-2.68c-0.49-0.49-1.29-0.49-1.79,0l-13.02,13.02c-0.49,0.49-0.49,1.29,0,1.79
					l2.68,2.68c0.49,0.49,1.29,0.49,1.79,0l13.02-13.02C243.12,161.34,243.12,160.54,242.63,160.05z"/>
			</g>
		</g>
	</g>
</g>
</svg>
